<?xml version="1.0" encoding="UTF-8"?><svg id="Layer_3" xmlns="http://www.w3.org/2000/svg" viewBox="0 0 925.21 841.89"><defs><style>.cls-1{stroke:#fff;stroke-miterlimit:10;}</style></defs><path class="cls-1" d="m596.37,776.57s75.41-30.05,120.76-74.86h101.09v74.86h-221.86Z"/><path class="cls-1" d="m818.23,420.94c0,196.41-159.22,355.62-355.62,355.62S106.98,617.35,106.98,420.94,266.2,65.32,462.6,65.32s355.62,159.22,355.62,355.62ZM464.42,116.12c-41.49,0-75.12,33.63-75.12,75.12s33.63,75.12,75.12,75.12,75.12-33.63,75.12-75.12-33.63-75.12-75.12-75.12Zm198.29,117.1c-41.49,0-75.12,33.63-75.12,75.12s33.63,75.12,75.12,75.12,75.12-33.63,75.12-75.12-33.63-75.12-75.12-75.12Zm-5.52,224.25c-41.49,0-75.12,33.63-75.12,75.12s33.63,75.12,75.12,75.12,75.12-33.63,75.12-75.12-33.63-75.12-75.12-75.12Zm-192.77,112.68c-41.49,0-75.12,33.63-75.12,75.12s33.63,75.12,75.12,75.12,75.12-33.63,75.12-75.12-33.63-75.12-75.12-75.12Zm-193.87-112.68c-41.49,0-75.12,33.63-75.12,75.12s33.63,75.12,75.12,75.12,75.12-33.63,75.12-75.12-33.63-75.12-75.12-75.12Zm0-224.25c-41.49,0-75.12,33.63-75.12,75.12s33.63,75.12,75.12,75.12,75.12-33.63,75.12-75.12-33.63-75.12-75.12-75.12Zm192.06,130.49c-30.12,0-54.54,24.42-54.54,54.54s24.42,54.54,54.54,54.54,54.54-24.42,54.54-54.54-24.42-54.54-54.54-54.54Z"/></svg>