<?xml version="1.0" encoding="UTF-8"?><svg id="Layer_3" xmlns="http://www.w3.org/2000/svg" viewBox="0 0 595.28 206.52"><defs><style>.cls-1{fill:#231f20;}</style></defs><path class="cls-1" d="m597.45,48.71V15.59H-9.74v35.01h4.57v105.32h-4.57v35.02h607.19v-32.77h1.89V48.71h-1.89Zm-455.24,107.21H4.07V50.6h138.14v105.32Zm150.62,0h-141.39V50.6h141.39v105.32Zm149.29,0h-140.05V50.6h140.05v105.32Zm147.99,0h-138.75V50.6h138.75v105.32ZM20.86,43.71h-8.63c-.99,0-1.8-.81-1.8-1.8v-14.06c0-.99.81-1.8,1.8-1.8h8.63c.99,0,1.8.81,1.8,1.8v14.06c0,.99-.81,1.8-1.8,1.8Zm30.06,0h-8.63c-.99,0-1.8-.81-1.8-1.8v-14.06c0-.99.81-1.8,1.8-1.8h8.63c.99,0,1.8.81,1.8,1.8v14.06c0,.99-.81,1.8-1.8,1.8Zm30.06,0h-8.63c-.99,0-1.8-.81-1.8-1.8v-14.06c0-.99.81-1.8,1.8-1.8h8.63c.99,0,1.8.81,1.8,1.8v14.06c0,.99-.81,1.8-1.8,1.8Zm30.06,0h-8.63c-.99,0-1.8-.81-1.8-1.8v-14.06c0-.99.81-1.8,1.8-1.8h8.63c.99,0,1.8.81,1.8,1.8v14.06c0,.99-.81,1.8-1.8,1.8Zm30.06,0h-8.63c-.99,0-1.8-.81-1.8-1.8v-14.06c0-.99.81-1.8,1.8-1.8h8.63c.99,0,1.8.81,1.8,1.8v14.06c0,.99-.81,1.8-1.8,1.8Zm30.06,0h-8.63c-.99,0-1.8-.81-1.8-1.8v-14.06c0-.99.81-1.8,1.8-1.8h8.63c.99,0,1.8.81,1.8,1.8v14.06c0,.99-.81,1.8-1.8,1.8Zm30.06,0h-8.63c-.99,0-1.8-.81-1.8-1.8v-14.06c0-.99.81-1.8,1.8-1.8h8.63c.99,0,1.8.81,1.8,1.8v14.06c0,.99-.81,1.8-1.8,1.8Zm30.06,0h-8.63c-.99,0-1.8-.81-1.8-1.8v-14.06c0-.99.81-1.8,1.8-1.8h8.63c.99,0,1.8.81,1.8,1.8v14.06c0,.99-.81,1.8-1.8,1.8Zm30.06,0h-8.63c-.99,0-1.8-.81-1.8-1.8v-14.06c0-.99.81-1.8,1.8-1.8h8.63c.99,0,1.8.81,1.8,1.8v14.06c0,.99-.81,1.8-1.8,1.8Zm30.06,0h-8.63c-.99,0-1.8-.81-1.8-1.8v-14.06c0-.99.81-1.8,1.8-1.8h8.63c.99,0,1.8.81,1.8,1.8v14.06c0,.99-.81,1.8-1.8,1.8Zm30.06,0h-8.63c-.99,0-1.8-.81-1.8-1.8v-14.06c0-.99.81-1.8,1.8-1.8h8.63c.99,0,1.8.81,1.8,1.8v14.06c0,.99-.81,1.8-1.8,1.8Zm30.06,0h-8.63c-.99,0-1.8-.81-1.8-1.8v-14.06c0-.99.81-1.8,1.8-1.8h8.63c.99,0,1.8.81,1.8,1.8v14.06c0,.99-.81,1.8-1.8,1.8Zm30.06,0h-8.63c-.99,0-1.8-.81-1.8-1.8v-14.06c0-.99.81-1.8,1.8-1.8h8.63c.99,0,1.8.81,1.8,1.8v14.06c0,.99-.81,1.8-1.8,1.8Zm30.06,0h-8.63c-.99,0-1.8-.81-1.8-1.8v-14.06c0-.99.81-1.8,1.8-1.8h8.63c.99,0,1.8.81,1.8,1.8v14.06c0,.99-.81,1.8-1.8,1.8Zm30.06,0h-8.63c-.99,0-1.8-.81-1.8-1.8v-14.06c0-.99.81-1.8,1.8-1.8h8.63c.99,0,1.8.81,1.8,1.8v14.06c0,.99-.81,1.8-1.8,1.8Zm30.06,0h-8.63c-.99,0-1.8-.81-1.8-1.8v-14.06c0-.99.81-1.8,1.8-1.8h8.63c.99,0,1.8.81,1.8,1.8v14.06c0,.99-.81,1.8-1.8,1.8Zm30.06,0h-8.63c-.99,0-1.8-.81-1.8-1.8v-14.06c0-.99.81-1.8,1.8-1.8h8.63c.99,0,1.8.81,1.8,1.8v14.06c0,.99-.81,1.8-1.8,1.8Zm30.06,0h-8.63c-.99,0-1.8-.81-1.8-1.8v-14.06c0-.99.81-1.8,1.8-1.8h8.63c.99,0,1.8.81,1.8,1.8v14.06c0,.99-.81,1.8-1.8,1.8Zm30.06,0h-8.63c-.99,0-1.8-.81-1.8-1.8v-14.06c0-.99.81-1.8,1.8-1.8h8.63c.99,0,1.8.81,1.8,1.8v14.06c0,.99-.81,1.8-1.8,1.8Zm30.06,0h-8.63c-.99,0-1.8-.81-1.8-1.8v-14.06c0-.99.81-1.8,1.8-1.8h8.63c.99,0,1.8.81,1.8,1.8v14.06c0,.99-.81,1.8-1.8,1.8ZM20.86,182.38h-8.63c-.99,0-1.8-.81-1.8-1.8v-14.06c0-.99.81-1.8,1.8-1.8h8.63c.99,0,1.8.81,1.8,1.8v14.06c0,.99-.81,1.8-1.8,1.8Zm30.06,0h-8.63c-.99,0-1.8-.81-1.8-1.8v-14.06c0-.99.81-1.8,1.8-1.8h8.63c.99,0,1.8.81,1.8,1.8v14.06c0,.99-.81,1.8-1.8,1.8Zm30.06,0h-8.63c-.99,0-1.8-.81-1.8-1.8v-14.06c0-.99.81-1.8,1.8-1.8h8.63c.99,0,1.8.81,1.8,1.8v14.06c0,.99-.81,1.8-1.8,1.8Zm30.06,0h-8.63c-.99,0-1.8-.81-1.8-1.8v-14.06c0-.99.81-1.8,1.8-1.8h8.63c.99,0,1.8.81,1.8,1.8v14.06c0,.99-.81,1.8-1.8,1.8Zm30.06,0h-8.63c-.99,0-1.8-.81-1.8-1.8v-14.06c0-.99.81-1.8,1.8-1.8h8.63c.99,0,1.8.81,1.8,1.8v14.06c0,.99-.81,1.8-1.8,1.8Zm30.06,0h-8.63c-.99,0-1.8-.81-1.8-1.8v-14.06c0-.99.81-1.8,1.8-1.8h8.63c.99,0,1.8.81,1.8,1.8v14.06c0,.99-.81,1.8-1.8,1.8Zm30.06,0h-8.63c-.99,0-1.8-.81-1.8-1.8v-14.06c0-.99.81-1.8,1.8-1.8h8.63c.99,0,1.8.81,1.8,1.8v14.06c0,.99-.81,1.8-1.8,1.8Zm30.06,0h-8.63c-.99,0-1.8-.81-1.8-1.8v-14.06c0-.99.81-1.8,1.8-1.8h8.63c.99,0,1.8.81,1.8,1.8v14.06c0,.99-.81,1.8-1.8,1.8Zm30.06,0h-8.63c-.99,0-1.8-.81-1.8-1.8v-14.06c0-.99.81-1.8,1.8-1.8h8.63c.99,0,1.8.81,1.8,1.8v14.06c0,.99-.81,1.8-1.8,1.8Zm30.06,0h-8.63c-.99,0-1.8-.81-1.8-1.8v-14.06c0-.99.81-1.8,1.8-1.8h8.63c.99,0,1.8.81,1.8,1.8v14.06c0,.99-.81,1.8-1.8,1.8Zm30.06,0h-8.63c-.99,0-1.8-.81-1.8-1.8v-14.06c0-.99.81-1.8,1.8-1.8h8.63c.99,0,1.8.81,1.8,1.8v14.06c0,.99-.81,1.8-1.8,1.8Zm30.06,0h-8.63c-.99,0-1.8-.81-1.8-1.8v-14.06c0-.99.81-1.8,1.8-1.8h8.63c.99,0,1.8.81,1.8,1.8v14.06c0,.99-.81,1.8-1.8,1.8Zm30.06,0h-8.63c-.99,0-1.8-.81-1.8-1.8v-14.06c0-.99.81-1.8,1.8-1.8h8.63c.99,0,1.8.81,1.8,1.8v14.06c0,.99-.81,1.8-1.8,1.8Zm30.06,0h-8.63c-.99,0-1.8-.81-1.8-1.8v-14.06c0-.99.81-1.8,1.8-1.8h8.63c.99,0,1.8.81,1.8,1.8v14.06c0,.99-.81,1.8-1.8,1.8Zm30.06,0h-8.63c-.99,0-1.8-.81-1.8-1.8v-14.06c0-.99.81-1.8,1.8-1.8h8.63c.99,0,1.8.81,1.8,1.8v14.06c0,.99-.81,1.8-1.8,1.8Zm30.06,0h-8.63c-.99,0-1.8-.81-1.8-1.8v-14.06c0-.99.81-1.8,1.8-1.8h8.63c.99,0,1.8.81,1.8,1.8v14.06c0,.99-.81,1.8-1.8,1.8Zm30.06,0h-8.63c-.99,0-1.8-.81-1.8-1.8v-14.06c0-.99.81-1.8,1.8-1.8h8.63c.99,0,1.8.81,1.8,1.8v14.06c0,.99-.81,1.8-1.8,1.8Zm30.06,0h-8.63c-.99,0-1.8-.81-1.8-1.8v-14.06c0-.99.81-1.8,1.8-1.8h8.63c.99,0,1.8.81,1.8,1.8v14.06c0,.99-.81,1.8-1.8,1.8Zm30.06,0h-8.63c-.99,0-1.8-.81-1.8-1.8v-14.06c0-.99.81-1.8,1.8-1.8h8.63c.99,0,1.8.81,1.8,1.8v14.06c0,.99-.81,1.8-1.8,1.8Zm30.06,0h-8.63c-.99,0-1.8-.81-1.8-1.8v-14.06c0-.99.81-1.8,1.8-1.8h8.63c.99,0,1.8.81,1.8,1.8v14.06c0,.99-.81,1.8-1.8,1.8Z"/></svg>