<svg width="338" height="28" viewBox="0 0 338 28" fill="none" xmlns="http://www.w3.org/2000/svg">
<path d="M0.68 27V22.92H5.52V6.16H0.92V2.08H15.16V6.16H10.32V22.92H15.36V27H0.68ZM25.4 27V6.32H18.84V2.08H37.2V6.32H30.24V27H25.4ZM46.2 13.8L43.72 11.48C44.2267 11 44.6533 10.5467 45 10.12C45.3733 9.69333 45.6667 9.26667 45.88 8.84C46.0933 8.38667 46.2 7.93333 46.2 7.48C46.2 7.10667 46.1067 6.8 45.92 6.56C45.76 6.32 45.56 6.09333 45.32 5.88C45.08 5.66667 44.8667 5.4 44.68 5.08C44.52 4.76 44.44 4.37333 44.44 3.92C44.44 3.09333 44.7333 2.38666 45.32 1.8C45.9067 1.21333 46.6667 0.92 47.6 0.92C48.5067 0.92 49.32 1.28 50.04 2C50.76 2.72 51.12 3.62666 51.12 4.72C51.12 5.6 50.9333 6.53333 50.56 7.52C50.1867 8.48 49.64 9.48 48.92 10.52C48.2267 11.56 47.32 12.6533 46.2 13.8ZM67.64 27.48C65.96 27.48 64.36 27.24 62.84 26.76C61.3467 26.28 60.12 25.5333 59.16 24.52L61.6 20.4L61.8 20.08L62.2 20.32C62.2533 20.5067 62.32 20.7067 62.4 20.92C62.48 21.1067 62.6933 21.3467 63.04 21.64C63.68 22.0933 64.3867 22.48 65.16 22.8C65.96 23.0933 66.8 23.2533 67.68 23.28C68.2667 23.28 68.8 23.2267 69.28 23.12C69.76 23.0133 70.1733 22.8533 70.52 22.64C70.8667 22.4 71.1333 22.0933 71.32 21.72C71.5067 21.3467 71.6 20.9067 71.6 20.4C71.6 20.1333 71.56 19.8667 71.48 19.6C71.4267 19.3067 71.3067 19.0267 71.12 18.76C70.96 18.4933 70.6933 18.2267 70.32 17.96C69.9733 17.6667 69.5333 17.36 69 17.04C68.4667 16.72 67.8 16.3867 67 16.04C65.2667 15.24 63.8933 14.4667 62.88 13.72C61.8933 12.9467 61.1867 12.12 60.76 11.24C60.3333 10.3333 60.12 9.29333 60.12 8.12C60.12 6.89333 60.4667 5.8 61.16 4.84C61.88 3.85333 62.8533 3.08 64.08 2.52C65.3067 1.93333 66.68 1.64 68.2 1.64C69.2933 1.64 70.2933 1.76 71.2 2C72.1333 2.24 73 2.6 73.8 3.08C74.6 3.56 75.3333 4.16 76 4.88L72.96 8.24L72.72 8.52L72.4 8.24C72.3733 8.02667 72.3333 7.82667 72.28 7.64C72.2267 7.42667 72.0533 7.16 71.76 6.84C71.28 6.41333 70.7733 6.13333 70.24 6C69.7067 5.84 69.0933 5.76 68.4 5.76C67.8933 5.76 67.44 5.82667 67.04 5.96C66.64 6.06667 66.2933 6.22667 66 6.44C65.7067 6.62667 65.48 6.85333 65.32 7.12C65.1867 7.38667 65.12 7.66667 65.12 7.96C65.12 8.22667 65.1467 8.48 65.2 8.72C65.2533 8.96 65.3733 9.2 65.56 9.44C65.7467 9.68 66.0133 9.93333 66.36 10.2C66.7333 10.44 67.2 10.72 67.76 11.04C68.3467 11.36 69.08 11.72 69.96 12.12C71.2133 12.7333 72.2667 13.3333 73.12 13.92C74 14.48 74.6933 15.0667 75.2 15.68C75.7333 16.2667 76.1067 16.9333 76.32 17.68C76.5333 18.4 76.64 19.2133 76.64 20.12C76.64 21.3733 76.32 22.56 75.68 23.68C75.0667 24.7733 74.0933 25.68 72.76 26.4C71.4267 27.12 69.72 27.48 67.64 27.48ZM107.64 27.48C105.96 27.48 104.36 27.24 102.84 26.76C101.347 26.28 100.12 25.5333 99.16 24.52L101.6 20.4L101.8 20.08L102.2 20.32C102.253 20.5067 102.32 20.7067 102.4 20.92C102.48 21.1067 102.693 21.3467 103.04 21.64C103.68 22.0933 104.387 22.48 105.16 22.8C105.96 23.0933 106.8 23.2533 107.68 23.28C108.267 23.28 108.8 23.2267 109.28 23.12C109.76 23.0133 110.173 22.8533 110.52 22.64C110.867 22.4 111.133 22.0933 111.32 21.72C111.507 21.3467 111.6 20.9067 111.6 20.4C111.6 20.1333 111.56 19.8667 111.48 19.6C111.427 19.3067 111.307 19.0267 111.12 18.76C110.96 18.4933 110.693 18.2267 110.32 17.96C109.973 17.6667 109.533 17.36 109 17.04C108.467 16.72 107.8 16.3867 107 16.04C105.267 15.24 103.893 14.4667 102.88 13.72C101.893 12.9467 101.187 12.12 100.76 11.24C100.333 10.3333 100.12 9.29333 100.12 8.12C100.12 6.89333 100.467 5.8 101.16 4.84C101.88 3.85333 102.853 3.08 104.08 2.52C105.307 1.93333 106.68 1.64 108.2 1.64C109.293 1.64 110.293 1.76 111.2 2C112.133 2.24 113 2.6 113.8 3.08C114.6 3.56 115.333 4.16 116 4.88L112.96 8.24L112.72 8.52L112.4 8.24C112.373 8.02667 112.333 7.82667 112.28 7.64C112.227 7.42667 112.053 7.16 111.76 6.84C111.28 6.41333 110.773 6.13333 110.24 6C109.707 5.84 109.093 5.76 108.4 5.76C107.893 5.76 107.44 5.82667 107.04 5.96C106.64 6.06667 106.293 6.22667 106 6.44C105.707 6.62667 105.48 6.85333 105.32 7.12C105.187 7.38667 105.12 7.66667 105.12 7.96C105.12 8.22667 105.147 8.48 105.2 8.72C105.253 8.96 105.373 9.2 105.56 9.44C105.747 9.68 106.013 9.93333 106.36 10.2C106.733 10.44 107.2 10.72 107.76 11.04C108.347 11.36 109.08 11.72 109.96 12.12C111.213 12.7333 112.267 13.3333 113.12 13.92C114 14.48 114.693 15.0667 115.2 15.68C115.733 16.2667 116.107 16.9333 116.32 17.68C116.533 18.4 116.64 19.2133 116.64 20.12C116.64 21.3733 116.32 22.56 115.68 23.68C115.067 24.7733 114.093 25.68 112.76 26.4C111.427 27.12 109.72 27.48 107.64 27.48ZM127.96 27.52C125.213 27.52 123.08 26.7067 121.56 25.08C120.04 23.4267 119.28 21.1467 119.28 18.24V2.08H124.32H124.68V2.48C124.547 2.64 124.453 2.81333 124.4 3C124.373 3.18666 124.36 3.50666 124.36 3.96V18.28C124.36 19.88 124.627 21.1467 125.16 22.08C125.693 22.9867 126.64 23.44 128 23.44C129.413 23.44 130.387 22.9733 130.92 22.04C131.48 21.1067 131.76 19.8133 131.76 18.16V2.08H136.76V18.12C136.76 20.28 136.387 22.0533 135.64 23.44C134.893 24.8267 133.853 25.8533 132.52 26.52C131.213 27.1867 129.693 27.52 127.96 27.52ZM139.28 2.08H144.68L152.48 17.8L152.16 2.08H156.64H157V2.48C156.867 2.64 156.773 2.81333 156.72 3C156.693 3.18666 156.68 3.50666 156.68 3.96V27H151.84L143.84 10.24V27H139.28V2.08ZM159.28 2.08H164.68L172.48 17.8L172.16 2.08H176.64H177V2.48C176.867 2.64 176.773 2.81333 176.72 3C176.693 3.18666 176.68 3.50666 176.68 3.96V27H171.84L163.84 10.24V27H159.28V2.08ZM185.88 27V17.16L178.52 2.08H183.68L188.48 11.92L192.72 2.08H197.68L190.88 17.2V27H185.88ZM220.68 27V22.92H225.52V6.16H220.92V2.08H235.16V6.16H230.32V22.92H235.36V27H220.68ZM239.28 2.08H244.68L252.48 17.8L252.16 2.08H256.64H257V2.48C256.867 2.64 256.773 2.81333 256.72 3C256.693 3.18666 256.68 3.50666 256.68 3.96V27H251.84L243.84 10.24V27H239.28V2.08ZM279.28 2.08H284.68L292.48 17.8L292.16 2.08H296.64H297V2.48C296.867 2.64 296.773 2.81333 296.72 3C296.693 3.18666 296.68 3.50666 296.68 3.96V27H291.84L283.84 10.24V27H279.28V2.08ZM305.88 27V17.16L298.52 2.08H303.68L308.48 11.92L312.72 2.08H317.68L310.88 17.2V27H305.88ZM329.08 27.48C327.72 27.48 326.44 27.2267 325.24 26.72C324.04 26.2133 322.973 25.44 322.04 24.4C321.107 23.36 320.373 22.04 319.84 20.44C319.333 18.8133 319.08 16.8933 319.08 14.68C319.08 12.7333 319.28 11.0267 319.68 9.56C320.107 8.09333 320.667 6.86667 321.36 5.88C322.053 4.86667 322.84 4.05333 323.72 3.44C324.6 2.8 325.52 2.34667 326.48 2.08C327.44 1.78667 328.387 1.64 329.32 1.64C331.24 1.64 332.867 2.06667 334.2 2.92C335.56 3.74666 336.6 4.94667 337.32 6.52L334.36 8.96L334.08 9.2L333.8 8.88C333.827 8.66667 333.813 8.46667 333.76 8.28C333.707 8.06667 333.56 7.78667 333.32 7.44C332.787 6.77333 332.213 6.33333 331.6 6.12C330.987 5.90667 330.36 5.8 329.72 5.8C329.027 5.8 328.347 5.98667 327.68 6.36C327.04 6.70667 326.453 7.24 325.92 7.96C325.387 8.68 324.96 9.58667 324.64 10.68C324.32 11.7467 324.16 13.0133 324.16 14.48C324.16 15.8933 324.28 17.1467 324.52 18.24C324.787 19.3067 325.147 20.2267 325.6 21C326.053 21.7467 326.587 22.32 327.2 22.72C327.84 23.0933 328.533 23.28 329.28 23.28C329.92 23.28 330.493 23.2 331 23.04C331.507 22.88 331.973 22.6133 332.4 22.24C332.827 21.84 333.227 21.3067 333.6 20.64L337.12 23.24C336.133 24.8133 334.987 25.92 333.68 26.56C332.373 27.1733 330.84 27.48 329.08 27.48Z" fill="#92BDFF" fill-opacity="0.62"/>
<path d="M0.68 27H-1.32C-1.32 28.1046 -0.424569 29 0.68 29L0.68 27ZM0.68 22.92V20.92C-0.424569 20.92 -1.32 21.8154 -1.32 22.92H0.68ZM5.52 22.92V24.92C6.62457 24.92 7.52 24.0246 7.52 22.92H5.52ZM5.52 6.16H7.52C7.52 5.05543 6.62457 4.16 5.52 4.16V6.16ZM0.92 6.16H-1.08C-1.08 7.26457 -0.184569 8.16 0.92 8.16L0.92 6.16ZM0.92 2.08V0.079999C-0.184569 0.079999 -1.08 0.975429 -1.08 2.08H0.92ZM15.16 2.08H17.16C17.16 0.975429 16.2646 0.079999 15.16 0.079999V2.08ZM15.16 6.16V8.16C16.2646 8.16 17.16 7.26457 17.16 6.16H15.16ZM10.32 6.16V4.16C9.21543 4.16 8.32 5.05543 8.32 6.16H10.32ZM10.32 22.92H8.32C8.32 24.0246 9.21543 24.92 10.32 24.92V22.92ZM15.36 22.92H17.36C17.36 21.8154 16.4646 20.92 15.36 20.92V22.92ZM15.36 27V29C16.4646 29 17.36 28.1046 17.36 27H15.36ZM2.68 27V22.92H-1.32V27H2.68ZM0.68 24.92H5.52V20.92H0.68V24.92ZM7.52 22.92V6.16H3.52V22.92H7.52ZM5.52 4.16H0.92V8.16H5.52V4.16ZM2.92 6.16V2.08H-1.08V6.16H2.92ZM0.92 4.08H15.16V0.079999H0.92V4.08ZM13.16 2.08V6.16H17.16V2.08H13.16ZM15.16 4.16H10.32V8.16H15.16V4.16ZM8.32 6.16V22.92H12.32V6.16H8.32ZM10.32 24.92H15.36V20.92H10.32V24.92ZM13.36 22.92V27H17.36V22.92H13.36ZM15.36 25H0.68V29H15.36V25ZM25.4 27H23.4C23.4 28.1046 24.2954 29 25.4 29V27ZM25.4 6.32H27.4C27.4 5.21543 26.5046 4.32 25.4 4.32V6.32ZM18.84 6.32H16.84C16.84 7.42457 17.7354 8.32 18.84 8.32V6.32ZM18.84 2.08V0.079999C17.7354 0.079999 16.84 0.975429 16.84 2.08H18.84ZM37.2 2.08H39.2C39.2 0.975429 38.3046 0.079999 37.2 0.079999V2.08ZM37.2 6.32V8.32C38.3046 8.32 39.2 7.42457 39.2 6.32H37.2ZM30.24 6.32V4.32C29.1354 4.32 28.24 5.21543 28.24 6.32H30.24ZM30.24 27V29C31.3446 29 32.24 28.1046 32.24 27H30.24ZM27.4 27V6.32H23.4V27H27.4ZM25.4 4.32H18.84V8.32H25.4V4.32ZM20.84 6.32V2.08H16.84V6.32H20.84ZM18.84 4.08H37.2V0.079999H18.84V4.08ZM35.2 2.08V6.32H39.2V2.08H35.2ZM37.2 4.32H30.24V8.32H37.2V4.32ZM28.24 6.32V27H32.24V6.32H28.24ZM30.24 25H25.4V29H30.24V25ZM46.2 13.8L44.8337 15.2605C45.6281 16.0037 46.8707 15.9756 47.6308 15.1975L46.2 13.8ZM43.72 11.48L42.3445 10.0281C41.9442 10.4073 41.7183 10.9349 41.72 11.4863C41.7217 12.0377 41.951 12.5639 42.3537 12.9405L43.72 11.48ZM45 10.12L43.4948 8.80299C43.4788 8.82131 43.4631 8.83992 43.4478 8.85881L45 10.12ZM45.88 8.84L47.6689 9.73443C47.676 9.72023 47.6829 9.70595 47.6896 9.69159L45.88 8.84ZM45.92 6.56L44.2559 7.6694C44.2829 7.70992 44.3114 7.74944 44.3413 7.78788L45.92 6.56ZM45.32 5.88L43.9913 7.37482L43.9913 7.37482L45.32 5.88ZM44.68 5.08L42.8911 5.97443C42.9104 6.01285 42.9308 6.05064 42.9524 6.08774L44.68 5.08ZM45.32 1.8L43.9058 0.385783L43.9058 0.385785L45.32 1.8ZM50.04 2L48.6258 3.41421L48.6258 3.41421L50.04 2ZM50.56 7.52L52.424 8.24489C52.4262 8.2392 52.4284 8.2335 52.4306 8.22778L50.56 7.52ZM48.92 10.52L47.2756 9.38158C47.269 9.39119 47.2624 9.40087 47.2559 9.4106L48.92 10.52ZM47.5663 12.3395L45.0863 10.0195L42.3537 12.9405L44.8337 15.2605L47.5663 12.3395ZM45.0955 12.9319C45.6492 12.4073 46.1386 11.8903 46.5522 11.3812L43.4478 8.85881C43.1681 9.20305 42.8041 9.5927 42.3445 10.0281L45.0955 12.9319ZM46.5052 11.437C46.9703 10.9055 47.3666 10.3389 47.6689 9.73443L44.0911 7.94557C43.9667 8.19445 43.7764 8.48121 43.4948 8.80299L46.5052 11.437ZM47.6896 9.69159C48.015 9.00017 48.2 8.25751 48.2 7.48H44.2C44.2 7.60916 44.1717 7.77316 44.0704 7.9884L47.6896 9.69159ZM48.2 7.48C48.2 6.76585 48.016 5.99725 47.4987 5.33212L44.3413 7.78788C44.2765 7.70463 44.2372 7.61997 44.2167 7.55232C44.1973 7.4888 44.2 7.45898 44.2 7.48H48.2ZM47.5841 5.4506C47.3192 5.05329 47.0023 4.69946 46.6487 4.38518L43.9913 7.37482C44.1177 7.4872 44.2008 7.58671 44.2559 7.6694L47.5841 5.4506ZM46.6487 4.38518C46.5887 4.33181 46.5039 4.23734 46.4076 4.07226L42.9524 6.08774C43.2295 6.56266 43.5713 7.00152 43.9913 7.37482L46.6487 4.38518ZM46.4689 4.18557C46.4798 4.2074 46.44 4.14351 46.44 3.92H42.44C42.44 4.60316 42.5602 5.31259 42.8911 5.97443L46.4689 4.18557ZM46.44 3.92C46.44 3.62593 46.5211 3.42734 46.7342 3.21421L43.9058 0.385785C42.9456 1.34599 42.44 2.56073 42.44 3.92H46.44ZM46.7342 3.21421C46.8976 3.05085 47.1248 2.92 47.6 2.92V-1.08C46.2086 -1.08 44.9158 -0.624187 43.9058 0.385783L46.7342 3.21421ZM47.6 2.92C47.909 2.92 48.2305 3.01888 48.6258 3.41421L51.4542 0.585786C50.4095 -0.458882 49.1044 -1.08 47.6 -1.08V2.92ZM48.6258 3.41421C48.9412 3.72961 49.12 4.11382 49.12 4.72H53.12C53.12 3.13951 52.5788 1.71039 51.4542 0.585786L48.6258 3.41421ZM49.12 4.72C49.12 5.3154 48.9938 6.00791 48.6894 6.81222L52.4306 8.22778C52.8729 7.05876 53.12 5.8846 53.12 4.72H49.12ZM48.696 6.79511C48.3906 7.5805 47.9258 8.44235 47.2756 9.38158L50.5644 11.6584C51.3542 10.5176 51.9828 9.3795 52.424 8.24489L48.696 6.79511ZM47.2559 9.4106C46.6473 10.3235 45.8256 11.321 44.7692 12.4025L47.6308 15.1975C48.8144 13.9856 49.806 12.7965 50.5841 11.6294L47.2559 9.4106ZM62.84 26.76L62.228 28.6641L62.2377 28.6672L62.84 26.76ZM59.16 24.52L57.4391 23.5009C56.9839 24.2695 57.0937 25.2469 57.7081 25.8955L59.16 24.52ZM61.6 20.4L59.904 19.34C59.8956 19.3535 59.8873 19.3671 59.8791 19.3809L61.6 20.4ZM61.8 20.08L62.829 18.365C61.894 17.804 60.6819 18.0953 60.104 19.02L61.8 20.08ZM62.2 20.32L64.123 19.7706C63.9837 19.2827 63.6641 18.8661 63.229 18.605L62.2 20.32ZM62.4 20.92L60.5273 21.6222C60.5381 21.651 60.5496 21.6796 60.5617 21.7078L62.4 20.92ZM63.04 21.64L61.7481 23.1668C61.7919 23.2038 61.8372 23.2389 61.884 23.272L63.04 21.64ZM65.16 22.8L64.3953 24.648C64.4205 24.6585 64.4459 24.6684 64.4715 24.6778L65.16 22.8ZM67.68 23.28L67.6194 25.2791C67.6396 25.2797 67.6598 25.28 67.68 25.28V23.28ZM70.52 22.64L71.5682 24.3433C71.5988 24.3245 71.6289 24.3048 71.6584 24.2844L70.52 22.64ZM71.32 21.72L73.1089 22.6144L73.1089 22.6144L71.32 21.72ZM71.48 19.6L69.5123 19.9578C69.5256 20.031 69.543 20.1034 69.5643 20.1747L71.48 19.6ZM71.12 18.76L69.405 19.789C69.4291 19.8292 69.4547 19.8685 69.4815 19.9069L71.12 18.76ZM70.32 17.96L69.0281 19.4868C69.0699 19.5221 69.113 19.5557 69.1575 19.5875L70.32 17.96ZM69 17.04L67.971 18.755L67.971 18.755L69 17.04ZM67 16.04L66.1619 17.8559C66.1761 17.8625 66.1904 17.8689 66.2048 17.8751L67 16.04ZM62.88 13.72L61.6462 15.2941C61.6618 15.3063 61.6776 15.3183 61.6936 15.3301L62.88 13.72ZM60.76 11.24L58.9504 12.0916C58.9537 12.0986 58.957 12.1056 58.9604 12.1125L60.76 11.24ZM61.16 4.84L59.5444 3.66105L59.5386 3.66902L61.16 4.84ZM64.08 2.52L64.9106 4.33937C64.9214 4.33443 64.9322 4.3294 64.9429 4.32427L64.08 2.52ZM71.2 2L70.6882 3.93341C70.6928 3.93462 70.6973 3.93581 70.7019 3.93699L71.2 2ZM76 4.88L77.4831 6.22183C78.1782 5.45349 78.1715 4.28146 77.4675 3.52118L76 4.88ZM72.96 8.24L71.4769 6.89817C71.4649 6.91143 71.4531 6.92485 71.4415 6.93842L72.96 8.24ZM72.72 8.52L71.403 10.0252C71.8048 10.3768 72.3306 10.5531 72.8632 10.5149C73.3958 10.4766 73.891 10.227 74.2385 9.82158L72.72 8.52ZM72.4 8.24L70.4154 8.48807C70.4763 8.97478 70.7139 9.42216 71.083 9.74515L72.4 8.24ZM72.28 7.64L70.3397 8.12507C70.3451 8.14662 70.3509 8.16808 70.357 8.18944L72.28 7.64ZM71.76 6.84L73.2343 5.48855C73.1883 5.43831 73.1397 5.39046 73.0887 5.34518L71.76 6.84ZM70.24 6L69.6653 7.91565C69.695 7.92456 69.7249 7.93277 69.7549 7.94028L70.24 6ZM67.04 5.96L67.5553 7.89247C67.5947 7.88196 67.6338 7.87026 67.6725 7.85737L67.04 5.96ZM66 6.44L67.0737 8.12732C67.1087 8.10511 67.1429 8.08181 67.1763 8.05747L66 6.44ZM65.32 7.12L63.605 6.09101C63.5787 6.1349 63.554 6.17979 63.5311 6.22557L65.32 7.12ZM66.36 10.2L65.1406 11.7852C65.1852 11.8195 65.2312 11.8519 65.2785 11.8824L66.36 10.2ZM67.76 11.04L66.7677 12.7765C66.7792 12.783 66.7907 12.7895 66.8023 12.7958L67.76 11.04ZM69.96 12.12L70.8391 10.3236C70.8221 10.3152 70.8049 10.3071 70.7876 10.2993L69.96 12.12ZM73.12 13.92L71.9869 15.5681C72.0065 15.5815 72.0263 15.5946 72.0462 15.6073L73.12 13.92ZM75.2 15.68L73.6581 16.9538C73.6782 16.9781 73.6989 17.002 73.7201 17.0253L75.2 15.68ZM76.32 17.68L74.397 18.2294C74.3987 18.2357 74.4006 18.2419 74.4024 18.2482L76.32 17.68ZM75.68 23.68L73.9435 22.6877C73.9409 22.6923 73.9383 22.6969 73.9357 22.7015L75.68 23.68ZM72.76 26.4L73.7103 28.1598L73.7103 28.1598L72.76 26.4ZM67.64 25.48C66.1532 25.48 64.7571 25.2681 63.4423 24.8528L62.2377 28.6672C63.9629 29.2119 65.7668 29.48 67.64 29.48V25.48ZM63.452 24.8559C62.2384 24.4658 61.3134 23.8849 60.6119 23.1445L57.7081 25.8955C58.9266 27.1817 60.455 28.0942 62.228 28.6641L63.452 24.8559ZM60.8809 25.5391L63.3209 21.4191L59.8791 19.3809L57.4391 23.5009L60.8809 25.5391ZM63.296 21.46L63.496 21.14L60.104 19.02L59.904 19.34L63.296 21.46ZM60.771 21.795L61.171 22.035L63.229 18.605L62.829 18.365L60.771 21.795ZM60.277 20.8694C60.3473 21.1156 60.4316 21.367 60.5273 21.6222L64.2727 20.2178C64.2084 20.0463 64.1594 19.8977 64.123 19.7706L60.277 20.8694ZM60.5617 21.7078C60.8425 22.363 61.3881 22.8621 61.7481 23.1668L64.3319 20.1132C64.2701 20.061 64.2216 20.0172 64.1843 19.9817C64.1467 19.9459 64.1248 19.9225 64.1148 19.9113C64.1041 19.8992 64.1132 19.908 64.1331 19.9369C64.1435 19.9521 64.1587 19.9754 64.1763 20.0065C64.1939 20.0375 64.2157 20.0795 64.2383 20.1322L60.5617 21.7078ZM61.884 23.272C62.6538 23.8173 63.4931 24.2747 64.3953 24.648L65.9247 20.952C65.2803 20.6853 64.7062 20.3693 64.196 20.008L61.884 23.272ZM64.4715 24.6778C65.4796 25.0474 66.5322 25.2461 67.6194 25.2791L67.7406 21.2809C67.0678 21.2605 66.4404 21.1393 65.8485 20.9222L64.4715 24.6778ZM67.68 25.28C68.3855 25.28 69.0672 25.2161 69.7139 25.0724L68.8461 21.1676C68.5328 21.2373 68.1478 21.28 67.68 21.28V25.28ZM69.7139 25.0724C70.3673 24.9272 70.9973 24.6946 71.5682 24.3433L69.4718 20.9367C69.3494 21.012 69.1527 21.0995 68.8461 21.1676L69.7139 25.0724ZM71.6584 24.2844C72.2785 23.8551 72.7703 23.2916 73.1089 22.6144L69.5311 20.8256C69.4964 20.8951 69.4548 20.9449 69.3816 20.9956L71.6584 24.2844ZM73.1089 22.6144C73.461 21.9102 73.6 21.1517 73.6 20.4H69.6C69.6 20.6617 69.5524 20.7831 69.5311 20.8256L73.1089 22.6144ZM73.6 20.4C73.6 19.9303 73.5291 19.4702 73.3957 19.0253L69.5643 20.1747C69.5909 20.2632 69.6 20.3364 69.6 20.4H73.6ZM73.4477 19.2422C73.3382 18.64 73.0951 18.094 72.7585 17.6131L69.4815 19.9069C69.5015 19.9354 69.5094 19.9524 69.5117 19.9578C69.5138 19.9628 69.513 19.9621 69.5123 19.9578L73.4477 19.2422ZM72.835 17.731C72.4833 17.1448 71.9822 16.6894 71.4825 16.3325L69.1575 19.5875C69.273 19.67 69.3449 19.7333 69.3858 19.7742C69.4271 19.8155 69.4247 19.8218 69.405 19.789L72.835 17.731ZM71.6119 16.4332C71.159 16.05 70.6236 15.6818 70.029 15.325L67.971 18.755C68.4431 19.0382 68.7877 19.2833 69.0281 19.4868L71.6119 16.4332ZM70.029 15.325C69.3973 14.946 68.6464 14.5737 67.7952 14.2049L66.2048 17.8751C66.9536 18.1996 67.536 18.494 67.971 18.755L70.029 15.325ZM67.8381 14.2241C66.1715 13.4549 64.9305 12.7466 64.0664 12.1099L61.6936 15.3301C62.8562 16.1867 64.3618 17.0251 66.1619 17.8559L67.8381 14.2241ZM64.1138 12.1459C63.3013 11.5091 62.8215 10.9076 62.5596 10.3675L58.9604 12.1125C59.5518 13.3324 60.4853 14.3842 61.6462 15.2941L64.1138 12.1459ZM62.5696 10.3884C62.288 9.78993 62.12 9.0489 62.12 8.12H58.12C58.12 9.53777 58.3787 10.8767 58.9504 12.0916L62.5696 10.3884ZM62.12 8.12C62.12 7.29765 62.3434 6.61732 62.7814 6.01098L59.5386 3.66902C58.5899 4.98268 58.12 6.48902 58.12 8.12H62.12ZM62.7756 6.01894C63.2727 5.33768 63.963 4.77198 64.9106 4.33937L63.2494 0.700622C61.7437 1.38801 60.4873 2.36898 59.5444 3.66106L62.7756 6.01894ZM64.9429 4.32427C65.8699 3.88093 66.9432 3.64 68.2 3.64V-0.36C66.4168 -0.36 64.7434 -0.0142643 63.2171 0.715729L64.9429 4.32427ZM68.2 3.64C69.1484 3.64 69.9734 3.74421 70.6882 3.93341L71.7118 0.0665896C70.6132 -0.224206 69.4383 -0.36 68.2 -0.36V3.64ZM70.7019 3.93699C71.4547 4.13056 72.1418 4.41743 72.771 4.79498L74.829 1.36501C73.8582 0.782565 72.812 0.349438 71.6981 0.0630134L70.7019 3.93699ZM72.771 4.79498C73.4005 5.17268 73.9877 5.65049 74.5325 6.23881L77.4675 3.52118C76.6789 2.66951 75.7995 1.94731 74.829 1.36501L72.771 4.79498ZM74.5169 3.53817L71.4769 6.89817L74.4431 9.58183L77.4831 6.22183L74.5169 3.53817ZM71.4415 6.93842L71.2015 7.21842L74.2385 9.82158L74.4785 9.54158L71.4415 6.93842ZM74.037 7.01484L73.717 6.73484L71.083 9.74515L71.403 10.0252L74.037 7.01484ZM74.3846 7.99193C74.3465 7.68741 74.2874 7.38581 74.203 7.09056L70.357 8.18944C70.3793 8.26752 70.4002 8.36592 70.4154 8.48807L74.3846 7.99193ZM74.2203 7.15493C74.04 6.4336 73.5735 5.85863 73.2343 5.48855L70.2857 8.19145C70.3323 8.24228 70.3671 8.28339 70.3923 8.31505C70.4177 8.34702 70.43 8.36516 70.4331 8.36998C70.4366 8.37535 70.4258 8.35964 70.409 8.32401C70.3925 8.28905 70.3638 8.2216 70.3397 8.12507L74.2203 7.15493ZM73.0887 5.34518C72.4082 4.74024 71.6202 4.2835 70.7251 4.05971L69.7549 7.94028C69.9264 7.98316 70.1518 8.08642 70.4313 8.33482L73.0887 5.34518ZM70.8147 4.08435C70.0558 3.85668 69.2424 3.76 68.4 3.76V7.76C68.9442 7.76 69.3575 7.82332 69.6653 7.91565L70.8147 4.08435ZM68.4 3.76C67.7204 3.76 67.0478 3.84921 66.4075 4.06263L67.6725 7.85737C67.8322 7.80413 68.0663 7.76 68.4 7.76V3.76ZM66.5247 4.02753C65.9201 4.18875 65.3421 4.44545 64.8237 4.82253L67.1763 8.05747C67.2445 8.00788 67.3599 7.94458 67.5553 7.89247L66.5247 4.02753ZM64.9263 4.75268C64.4022 5.08615 63.9428 5.52805 63.605 6.09101L67.035 8.14899C67.0283 8.16014 67.0229 8.16549 67.0242 8.16421C67.0261 8.16235 67.0399 8.14886 67.0737 8.12732L64.9263 4.75268ZM63.5311 6.22557C63.2613 6.76523 63.12 7.35094 63.12 7.96H67.12C67.12 7.96634 67.1191 7.97859 67.1156 7.99324C67.1122 8.00777 67.1083 8.01545 67.1089 8.01443L63.5311 6.22557ZM63.12 7.96C63.12 8.36039 63.1601 8.75997 63.2476 9.15386L67.1524 8.28614C67.1332 8.20002 67.12 8.09294 67.12 7.96H63.12ZM63.2476 9.15386C63.3786 9.74305 63.6549 10.2482 63.9813 10.6679L67.1387 8.21212C67.0918 8.15182 67.1281 8.17695 67.1524 8.28614L63.2476 9.15386ZM63.9813 10.6679C64.3066 11.0861 64.7128 11.4562 65.1406 11.7852L67.5794 8.61475C67.3139 8.41048 67.1868 8.2739 67.1387 8.21212L63.9813 10.6679ZM65.2785 11.8824C65.6909 12.1475 66.1897 12.4462 66.7677 12.7765L68.7523 9.30351C68.2103 8.9938 67.7758 8.73251 67.4415 8.51764L65.2785 11.8824ZM66.8023 12.7958C67.4457 13.1467 68.2259 13.5287 69.1324 13.9407L70.7876 10.2993C69.9341 9.91133 69.2477 9.57328 68.7177 9.28421L66.8023 12.7958ZM69.0809 13.9164C70.2742 14.5004 71.2368 15.0523 71.9869 15.5681L74.2531 12.2719C73.2966 11.6143 72.1525 10.9663 70.8391 10.3236L69.0809 13.9164ZM72.0462 15.6073C72.8012 16.0878 73.319 16.5433 73.6581 16.9538L76.7419 14.4062C76.0677 13.5901 75.1988 12.8722 74.1938 12.2327L72.0462 15.6073ZM73.7201 17.0253C74.051 17.3893 74.27 17.785 74.397 18.2294L78.243 17.1306C77.9434 16.0817 77.4157 15.144 76.6799 14.3347L73.7201 17.0253ZM74.4024 18.2482C74.5511 18.7502 74.64 19.3673 74.64 20.12H78.64C78.64 19.0594 78.5155 18.0498 78.2376 17.1118L74.4024 18.2482ZM74.64 20.12C74.64 21.0148 74.4161 21.8607 73.9435 22.6877L77.4165 24.6723C78.2239 23.2593 78.64 21.7319 78.64 20.12H74.64ZM73.9357 22.7015C73.5432 23.4013 72.8798 24.0623 71.8097 24.6402L73.7103 28.1598C75.3069 27.2977 76.5902 26.1454 77.4243 24.6585L73.9357 22.7015ZM71.8097 24.6402C70.8568 25.1548 69.5059 25.48 67.64 25.48V29.48C69.9341 29.48 71.9966 29.0852 73.7103 28.1598L71.8097 24.6402ZM102.84 26.76L102.228 28.6641L102.238 28.6672L102.84 26.76ZM99.16 24.52L97.4391 23.5009C96.9839 24.2695 97.0937 25.2469 97.7081 25.8955L99.16 24.52ZM101.6 20.4L99.904 19.34C99.8956 19.3535 99.8873 19.3671 99.8791 19.3809L101.6 20.4ZM101.8 20.08L102.829 18.365C101.894 17.804 100.682 18.0953 100.104 19.02L101.8 20.08ZM102.2 20.32L104.123 19.7706C103.984 19.2827 103.664 18.8661 103.229 18.605L102.2 20.32ZM102.4 20.92L100.527 21.6222C100.538 21.651 100.55 21.6796 100.562 21.7078L102.4 20.92ZM103.04 21.64L101.748 23.1668C101.792 23.2038 101.837 23.2389 101.884 23.272L103.04 21.64ZM105.16 22.8L104.395 24.648C104.42 24.6585 104.446 24.6684 104.471 24.6778L105.16 22.8ZM107.68 23.28L107.619 25.2791C107.64 25.2797 107.66 25.28 107.68 25.28V23.28ZM110.52 22.64L111.568 24.3433C111.599 24.3245 111.629 24.3048 111.658 24.2844L110.52 22.64ZM111.32 21.72L113.109 22.6144L113.109 22.6144L111.32 21.72ZM111.48 19.6L109.512 19.9578C109.526 20.031 109.543 20.1034 109.564 20.1747L111.48 19.6ZM111.12 18.76L109.405 19.789C109.429 19.8292 109.455 19.8685 109.482 19.9069L111.12 18.76ZM110.32 17.96L109.028 19.4868C109.07 19.5221 109.113 19.5557 109.158 19.5875L110.32 17.96ZM109 17.04L107.971 18.755L107.971 18.755L109 17.04ZM107 16.04L106.162 17.8559C106.176 17.8625 106.19 17.8689 106.205 17.8751L107 16.04ZM102.88 13.72L101.646 15.2941C101.662 15.3063 101.678 15.3183 101.694 15.3301L102.88 13.72ZM100.76 11.24L98.9504 12.0916C98.9537 12.0986 98.957 12.1056 98.9604 12.1125L100.76 11.24ZM101.16 4.84L99.5444 3.66105L99.5386 3.66902L101.16 4.84ZM104.08 2.52L104.911 4.33937C104.921 4.33443 104.932 4.3294 104.943 4.32427L104.08 2.52ZM111.2 2L110.688 3.93341C110.693 3.93462 110.697 3.93581 110.702 3.93699L111.2 2ZM116 4.88L117.483 6.22183C118.178 5.45349 118.171 4.28146 117.468 3.52118L116 4.88ZM112.96 8.24L111.477 6.89817C111.465 6.91143 111.453 6.92485 111.441 6.93842L112.96 8.24ZM112.72 8.52L111.403 10.0252C111.805 10.3768 112.331 10.5531 112.863 10.5149C113.396 10.4766 113.891 10.227 114.239 9.82158L112.72 8.52ZM112.4 8.24L110.415 8.48807C110.476 8.97478 110.714 9.42216 111.083 9.74515L112.4 8.24ZM112.28 7.64L110.34 8.12507C110.345 8.14662 110.351 8.16808 110.357 8.18944L112.28 7.64ZM111.76 6.84L113.234 5.48855C113.188 5.43831 113.14 5.39046 113.089 5.34518L111.76 6.84ZM110.24 6L109.665 7.91565C109.695 7.92456 109.725 7.93277 109.755 7.94028L110.24 6ZM107.04 5.96L107.555 7.89247C107.595 7.88196 107.634 7.87026 107.672 7.85737L107.04 5.96ZM106 6.44L107.074 8.12732C107.109 8.10511 107.143 8.08181 107.176 8.05747L106 6.44ZM105.32 7.12L103.605 6.09101C103.579 6.1349 103.554 6.17979 103.531 6.22557L105.32 7.12ZM106.36 10.2L105.141 11.7852C105.185 11.8195 105.231 11.8519 105.278 11.8824L106.36 10.2ZM107.76 11.04L106.768 12.7765C106.779 12.783 106.791 12.7895 106.802 12.7958L107.76 11.04ZM109.96 12.12L110.839 10.3236C110.822 10.3152 110.805 10.3071 110.788 10.2993L109.96 12.12ZM113.12 13.92L111.987 15.5681C112.006 15.5815 112.026 15.5946 112.046 15.6073L113.12 13.92ZM115.2 15.68L113.658 16.9538C113.678 16.9781 113.699 17.002 113.72 17.0253L115.2 15.68ZM116.32 17.68L114.397 18.2294C114.399 18.2357 114.401 18.2419 114.402 18.2482L116.32 17.68ZM115.68 23.68L113.944 22.6877C113.941 22.6923 113.938 22.6969 113.936 22.7015L115.68 23.68ZM112.76 26.4L113.71 28.1598L113.71 28.1598L112.76 26.4ZM107.64 25.48C106.153 25.48 104.757 25.2681 103.442 24.8528L102.238 28.6672C103.963 29.2119 105.767 29.48 107.64 29.48V25.48ZM103.452 24.8559C102.238 24.4658 101.313 23.8849 100.612 23.1445L97.7081 25.8955C98.9266 27.1817 100.455 28.0942 102.228 28.6641L103.452 24.8559ZM100.881 25.5391L103.321 21.4191L99.8791 19.3809L97.4391 23.5009L100.881 25.5391ZM103.296 21.46L103.496 21.14L100.104 19.02L99.904 19.34L103.296 21.46ZM100.771 21.795L101.171 22.035L103.229 18.605L102.829 18.365L100.771 21.795ZM100.277 20.8694C100.347 21.1156 100.432 21.367 100.527 21.6222L104.273 20.2178C104.208 20.0463 104.159 19.8977 104.123 19.7706L100.277 20.8694ZM100.562 21.7078C100.842 22.363 101.388 22.8621 101.748 23.1668L104.332 20.1132C104.27 20.061 104.222 20.0172 104.184 19.9817C104.147 19.9459 104.125 19.9225 104.115 19.9113C104.104 19.8992 104.113 19.908 104.133 19.9369C104.144 19.9521 104.159 19.9754 104.176 20.0065C104.194 20.0375 104.216 20.0795 104.238 20.1322L100.562 21.7078ZM101.884 23.272C102.654 23.8173 103.493 24.2747 104.395 24.648L105.925 20.952C105.28 20.6853 104.706 20.3693 104.196 20.008L101.884 23.272ZM104.471 24.6778C105.48 25.0474 106.532 25.2461 107.619 25.2791L107.741 21.2809C107.068 21.2605 106.44 21.1393 105.849 20.9222L104.471 24.6778ZM107.68 25.28C108.386 25.28 109.067 25.2161 109.714 25.0724L108.846 21.1676C108.533 21.2373 108.148 21.28 107.68 21.28V25.28ZM109.714 25.0724C110.367 24.9272 110.997 24.6946 111.568 24.3433L109.472 20.9367C109.349 21.012 109.153 21.0995 108.846 21.1676L109.714 25.0724ZM111.658 24.2844C112.279 23.8551 112.77 23.2916 113.109 22.6144L109.531 20.8256C109.496 20.8951 109.455 20.9449 109.382 20.9956L111.658 24.2844ZM113.109 22.6144C113.461 21.9102 113.6 21.1517 113.6 20.4H109.6C109.6 20.6617 109.552 20.7831 109.531 20.8256L113.109 22.6144ZM113.6 20.4C113.6 19.9303 113.529 19.4702 113.396 19.0253L109.564 20.1747C109.591 20.2632 109.6 20.3364 109.6 20.4H113.6ZM113.448 19.2422C113.338 18.64 113.095 18.094 112.758 17.6131L109.482 19.9069C109.501 19.9354 109.509 19.9524 109.512 19.9578C109.514 19.9628 109.513 19.9621 109.512 19.9578L113.448 19.2422ZM112.835 17.731C112.483 17.1448 111.982 16.6894 111.482 16.3325L109.158 19.5875C109.273 19.67 109.345 19.7333 109.386 19.7742C109.427 19.8155 109.425 19.8218 109.405 19.789L112.835 17.731ZM111.612 16.4332C111.159 16.05 110.624 15.6818 110.029 15.325L107.971 18.755C108.443 19.0382 108.788 19.2833 109.028 19.4868L111.612 16.4332ZM110.029 15.325C109.397 14.946 108.646 14.5737 107.795 14.2049L106.205 17.8751C106.954 18.1996 107.536 18.494 107.971 18.755L110.029 15.325ZM107.838 14.2241C106.172 13.4549 104.93 12.7466 104.066 12.1099L101.694 15.3301C102.856 16.1867 104.362 17.0251 106.162 17.8559L107.838 14.2241ZM104.114 12.1459C103.301 11.5091 102.822 10.9076 102.56 10.3675L98.9604 12.1125C99.5518 13.3324 100.485 14.3842 101.646 15.2941L104.114 12.1459ZM102.57 10.3884C102.288 9.78993 102.12 9.0489 102.12 8.12H98.12C98.12 9.53777 98.3787 10.8767 98.9504 12.0916L102.57 10.3884ZM102.12 8.12C102.12 7.29765 102.343 6.61732 102.781 6.01098L99.5386 3.66902C98.5899 4.98268 98.12 6.48902 98.12 8.12H102.12ZM102.776 6.01894C103.273 5.33768 103.963 4.77198 104.911 4.33937L103.249 0.700622C101.744 1.38801 100.487 2.36898 99.5444 3.66106L102.776 6.01894ZM104.943 4.32427C105.87 3.88093 106.943 3.64 108.2 3.64V-0.36C106.417 -0.36 104.743 -0.0142643 103.217 0.715729L104.943 4.32427ZM108.2 3.64C109.148 3.64 109.973 3.74421 110.688 3.93341L111.712 0.0665896C110.613 -0.224206 109.438 -0.36 108.2 -0.36V3.64ZM110.702 3.93699C111.455 4.13056 112.142 4.41743 112.771 4.79498L114.829 1.36501C113.858 0.782565 112.812 0.349438 111.698 0.0630134L110.702 3.93699ZM112.771 4.79498C113.401 5.17268 113.988 5.65049 114.532 6.23881L117.468 3.52118C116.679 2.66951 115.799 1.94731 114.829 1.36501L112.771 4.79498ZM114.517 3.53817L111.477 6.89817L114.443 9.58183L117.483 6.22183L114.517 3.53817ZM111.441 6.93842L111.201 7.21842L114.239 9.82158L114.479 9.54158L111.441 6.93842ZM114.037 7.01484L113.717 6.73484L111.083 9.74515L111.403 10.0252L114.037 7.01484ZM114.385 7.99193C114.346 7.68741 114.287 7.38581 114.203 7.09056L110.357 8.18944C110.379 8.26752 110.4 8.36592 110.415 8.48807L114.385 7.99193ZM114.22 7.15493C114.04 6.4336 113.574 5.85863 113.234 5.48855L110.286 8.19145C110.332 8.24228 110.367 8.28339 110.392 8.31505C110.418 8.34702 110.43 8.36516 110.433 8.36998C110.437 8.37535 110.426 8.35964 110.409 8.32401C110.392 8.28905 110.364 8.2216 110.34 8.12507L114.22 7.15493ZM113.089 5.34518C112.408 4.74024 111.62 4.2835 110.725 4.05971L109.755 7.94028C109.926 7.98316 110.152 8.08642 110.431 8.33482L113.089 5.34518ZM110.815 4.08435C110.056 3.85668 109.242 3.76 108.4 3.76V7.76C108.944 7.76 109.358 7.82332 109.665 7.91565L110.815 4.08435ZM108.4 3.76C107.72 3.76 107.048 3.84921 106.408 4.06263L107.672 7.85737C107.832 7.80413 108.066 7.76 108.4 7.76V3.76ZM106.525 4.02753C105.92 4.18875 105.342 4.44545 104.824 4.82253L107.176 8.05747C107.245 8.00788 107.36 7.94458 107.555 7.89247L106.525 4.02753ZM104.926 4.75268C104.402 5.08615 103.943 5.52805 103.605 6.09101L107.035 8.14899C107.028 8.16014 107.023 8.16549 107.024 8.16421C107.026 8.16235 107.04 8.14886 107.074 8.12732L104.926 4.75268ZM103.531 6.22557C103.261 6.76523 103.12 7.35094 103.12 7.96H107.12C107.12 7.96634 107.119 7.97859 107.116 7.99324C107.112 8.00777 107.108 8.01545 107.109 8.01443L103.531 6.22557ZM103.12 7.96C103.12 8.36039 103.16 8.75997 103.248 9.15386L107.152 8.28614C107.133 8.20002 107.12 8.09294 107.12 7.96H103.12ZM103.248 9.15386C103.379 9.74305 103.655 10.2482 103.981 10.6679L107.139 8.21212C107.092 8.15182 107.128 8.17695 107.152 8.28614L103.248 9.15386ZM103.981 10.6679C104.307 11.0861 104.713 11.4562 105.141 11.7852L107.579 8.61475C107.314 8.41048 107.187 8.2739 107.139 8.21212L103.981 10.6679ZM105.278 11.8824C105.691 12.1475 106.19 12.4462 106.768 12.7765L108.752 9.30351C108.21 8.9938 107.776 8.73251 107.442 8.51764L105.278 11.8824ZM106.802 12.7958C107.446 13.1467 108.226 13.5287 109.132 13.9407L110.788 10.2993C109.934 9.91133 109.248 9.57328 108.718 9.28421L106.802 12.7958ZM109.081 13.9164C110.274 14.5004 111.237 15.0523 111.987 15.5681L114.253 12.2719C113.297 11.6143 112.152 10.9663 110.839 10.3236L109.081 13.9164ZM112.046 15.6073C112.801 16.0878 113.319 16.5433 113.658 16.9538L116.742 14.4062C116.068 13.5901 115.199 12.8722 114.194 12.2327L112.046 15.6073ZM113.72 17.0253C114.051 17.3893 114.27 17.785 114.397 18.2294L118.243 17.1306C117.943 16.0817 117.416 15.144 116.68 14.3347L113.72 17.0253ZM114.402 18.2482C114.551 18.7502 114.64 19.3673 114.64 20.12H118.64C118.64 19.0594 118.516 18.0498 118.238 17.1118L114.402 18.2482ZM114.64 20.12C114.64 21.0148 114.416 21.8607 113.944 22.6877L117.416 24.6723C118.224 23.2593 118.64 21.7319 118.64 20.12H114.64ZM113.936 22.7015C113.543 23.4013 112.88 24.0623 111.81 24.6402L113.71 28.1598C115.307 27.2977 116.59 26.1454 117.424 24.6585L113.936 22.7015ZM111.81 24.6402C110.857 25.1548 109.506 25.48 107.64 25.48V29.48C109.934 29.48 111.997 29.0852 113.71 28.1598L111.81 24.6402ZM121.56 25.08L120.088 26.4336C120.091 26.4376 120.095 26.4415 120.099 26.4455L121.56 25.08ZM119.28 2.08V0.079999C118.175 0.079999 117.28 0.975429 117.28 2.08H119.28ZM124.68 2.08H126.68C126.68 0.975429 125.785 0.079999 124.68 0.079999V2.08ZM124.68 2.48L126.216 3.76037C126.516 3.40094 126.68 2.94787 126.68 2.48H124.68ZM124.4 3L122.477 2.45056C122.452 2.53803 122.433 2.6271 122.42 2.71715L124.4 3ZM125.16 22.08L123.424 23.0723C123.428 23.0796 123.432 23.0868 123.436 23.094L125.16 22.08ZM130.92 22.04L129.205 21.011C129.198 21.0232 129.191 21.0354 129.184 21.0477L130.92 22.04ZM131.76 2.08V0.079999C130.655 0.079999 129.76 0.975429 129.76 2.08H131.76ZM136.76 2.08H138.76C138.76 0.975429 137.865 0.079999 136.76 0.079999V2.08ZM132.52 26.52L131.626 24.7311C131.621 24.7336 131.616 24.736 131.611 24.7385L132.52 26.52ZM127.96 25.52C125.628 25.52 124.078 24.8451 123.021 23.7145L120.099 26.4455C122.082 28.5683 124.798 29.52 127.96 29.52V25.52ZM123.032 23.7264C121.942 22.5406 121.28 20.7973 121.28 18.24H117.28C117.28 21.496 118.138 24.3127 120.088 26.4336L123.032 23.7264ZM121.28 18.24V2.08H117.28V18.24H121.28ZM119.28 4.08H124.32V0.079999H119.28V4.08ZM124.32 4.08H124.68V0.079999H124.32V4.08ZM122.68 2.08V2.48H126.68V2.08H122.68ZM123.144 1.19963C122.845 1.55787 122.612 1.97687 122.477 2.45056L126.323 3.54944C126.294 3.64979 126.248 3.72213 126.216 3.76037L123.144 1.19963ZM122.42 2.71715C122.371 3.05907 122.36 3.50652 122.36 3.96H126.36C126.36 3.75072 126.363 3.5868 126.368 3.46326C126.374 3.33093 126.38 3.28012 126.38 3.28284L122.42 2.71715ZM122.36 3.96V18.28H126.36V3.96H122.36ZM122.36 18.28C122.36 20.0703 122.653 21.7243 123.424 23.0723L126.896 21.0877C126.6 20.5691 126.36 19.6897 126.36 18.28H122.36ZM123.436 23.094C124.435 24.7922 126.169 25.44 128 25.44V21.44C127.111 21.44 126.952 21.1811 126.884 21.066L123.436 23.094ZM128 25.44C129.872 25.44 131.655 24.7851 132.656 23.0323L129.184 21.0477C129.118 21.1616 128.955 21.44 128 21.44V25.44ZM132.635 23.069C133.454 21.7036 133.76 20.0019 133.76 18.16H129.76C129.76 19.6247 129.506 20.5098 129.205 21.011L132.635 23.069ZM133.76 18.16V2.08H129.76V18.16H133.76ZM131.76 4.08H136.76V0.079999H131.76V4.08ZM134.76 2.08V18.12H138.76V2.08H134.76ZM134.76 18.12C134.76 20.0661 134.421 21.4846 133.879 22.4918L137.401 24.3882C138.352 22.622 138.76 20.4939 138.76 18.12H134.76ZM133.879 22.4918C133.316 23.5374 132.569 24.2595 131.626 24.7311L133.414 28.3089C135.138 27.4472 136.471 26.1159 137.401 24.3882L133.879 22.4918ZM131.611 24.7385C130.633 25.2376 129.435 25.52 127.96 25.52V29.52C129.952 29.52 131.794 29.1357 133.429 28.3015L131.611 24.7385ZM139.28 2.08V0.079999C138.175 0.079999 137.28 0.975429 137.28 2.08H139.28ZM144.68 2.08L146.472 1.19105C146.134 0.510471 145.44 0.079999 144.68 0.079999V2.08ZM152.48 17.8L150.688 18.689C151.105 19.5277 152.047 19.9654 152.956 19.7425C153.866 19.5195 154.499 18.6954 154.48 17.7593L152.48 17.8ZM152.16 2.08V0.079999C151.623 0.079999 151.108 0.29634 150.731 0.68025C150.355 1.06416 150.149 1.58332 150.16 2.1207L152.16 2.08ZM157 2.08H159C159 0.975429 158.105 0.079999 157 0.079999V2.08ZM157 2.48L158.536 3.76037C158.836 3.40094 159 2.94787 159 2.48H157ZM156.72 3L154.797 2.45056C154.772 2.53803 154.753 2.6271 154.74 2.71715L156.72 3ZM156.68 27V29C157.785 29 158.68 28.1046 158.68 27H156.68ZM151.84 27L150.035 27.8615C150.367 28.5571 151.069 29 151.84 29V27ZM143.84 10.24L145.645 9.37846C145.242 8.5352 144.31 8.08303 143.398 8.28938C142.487 8.49573 141.84 9.3056 141.84 10.24H143.84ZM143.84 27V29C144.945 29 145.84 28.1046 145.84 27H143.84ZM139.28 27H137.28C137.28 28.1046 138.175 29 139.28 29V27ZM139.28 4.08H144.68V0.079999H139.28V4.08ZM142.888 2.96895L150.688 18.689L154.272 16.911L146.472 1.19105L142.888 2.96895ZM154.48 17.7593L154.16 2.03929L150.16 2.1207L150.48 17.8407L154.48 17.7593ZM152.16 4.08H156.64V0.079999H152.16V4.08ZM156.64 4.08H157V0.079999H156.64V4.08ZM155 2.08V2.48H159V2.08H155ZM155.464 1.19963C155.165 1.55787 154.932 1.97687 154.797 2.45056L158.643 3.54944C158.614 3.64979 158.568 3.72213 158.536 3.76037L155.464 1.19963ZM154.74 2.71715C154.691 3.05906 154.68 3.50652 154.68 3.96H158.68C158.68 3.75072 158.683 3.5868 158.688 3.46326C158.694 3.33093 158.7 3.28012 158.7 3.28285L154.74 2.71715ZM154.68 3.96V27H158.68V3.96H154.68ZM156.68 25H151.84V29H156.68V25ZM153.645 26.1385L145.645 9.37846L142.035 11.1015L150.035 27.8615L153.645 26.1385ZM141.84 10.24V27H145.84V10.24H141.84ZM143.84 25H139.28V29H143.84V25ZM141.28 27V2.08H137.28V27H141.28ZM159.28 2.08V0.079999C158.175 0.079999 157.28 0.975429 157.28 2.08H159.28ZM164.68 2.08L166.472 1.19105C166.134 0.510471 165.44 0.079999 164.68 0.079999V2.08ZM172.48 17.8L170.688 18.689C171.105 19.5277 172.047 19.9654 172.956 19.7425C173.866 19.5195 174.499 18.6954 174.48 17.7593L172.48 17.8ZM172.16 2.08V0.079999C171.623 0.079999 171.108 0.29634 170.731 0.68025C170.355 1.06416 170.149 1.58332 170.16 2.1207L172.16 2.08ZM177 2.08H179C179 0.975429 178.105 0.079999 177 0.079999V2.08ZM177 2.48L178.536 3.76037C178.836 3.40094 179 2.94787 179 2.48H177ZM176.72 3L174.797 2.45056C174.772 2.53803 174.753 2.6271 174.74 2.71715L176.72 3ZM176.68 27V29C177.785 29 178.68 28.1046 178.68 27H176.68ZM171.84 27L170.035 27.8615C170.367 28.5571 171.069 29 171.84 29V27ZM163.84 10.24L165.645 9.37846C165.242 8.5352 164.31 8.08303 163.398 8.28938C162.487 8.49573 161.84 9.3056 161.84 10.24H163.84ZM163.84 27V29C164.945 29 165.84 28.1046 165.84 27H163.84ZM159.28 27H157.28C157.28 28.1046 158.175 29 159.28 29V27ZM159.28 4.08H164.68V0.079999H159.28V4.08ZM162.888 2.96895L170.688 18.689L174.272 16.911L166.472 1.19105L162.888 2.96895ZM174.48 17.7593L174.16 2.03929L170.16 2.1207L170.48 17.8407L174.48 17.7593ZM172.16 4.08H176.64V0.079999H172.16V4.08ZM176.64 4.08H177V0.079999H176.64V4.08ZM175 2.08V2.48H179V2.08H175ZM175.464 1.19963C175.165 1.55787 174.932 1.97687 174.797 2.45056L178.643 3.54944C178.614 3.64979 178.568 3.72213 178.536 3.76037L175.464 1.19963ZM174.74 2.71715C174.691 3.05906 174.68 3.50652 174.68 3.96H178.68C178.68 3.75072 178.683 3.5868 178.688 3.46326C178.694 3.33093 178.7 3.28012 178.7 3.28285L174.74 2.71715ZM174.68 3.96V27H178.68V3.96H174.68ZM176.68 25H171.84V29H176.68V25ZM173.645 26.1385L165.645 9.37846L162.035 11.1015L170.035 27.8615L173.645 26.1385ZM161.84 10.24V27H165.84V10.24H161.84ZM163.84 25H159.28V29H163.84V25ZM161.28 27V2.08H157.28V27H161.28ZM185.88 27H183.88C183.88 28.1046 184.775 29 185.88 29V27ZM185.88 17.16H187.88C187.88 16.856 187.811 16.556 187.677 16.2828L185.88 17.16ZM178.52 2.08V0.079999C177.83 0.079999 177.189 0.435404 176.824 1.02039C176.458 1.60537 176.42 2.33737 176.723 2.95722L178.52 2.08ZM183.68 2.08L185.478 1.20315C185.142 0.515942 184.445 0.079999 183.68 0.079999V2.08ZM188.48 11.92L186.682 12.7968C187.025 13.4993 187.746 13.9378 188.527 13.9194C189.308 13.9011 190.007 13.4292 190.317 12.7114L188.48 11.92ZM192.72 2.08V0.079999C191.921 0.079999 191.199 0.555117 190.883 1.28856L192.72 2.08ZM197.68 2.08L199.504 2.90033C199.782 2.28145 199.728 1.56367 199.359 0.993872C198.991 0.424074 198.359 0.079999 197.68 0.079999V2.08ZM190.88 17.2L189.056 16.3797C188.94 16.6376 188.88 16.9172 188.88 17.2H190.88ZM190.88 27V29C191.985 29 192.88 28.1046 192.88 27H190.88ZM187.88 27V17.16H183.88V27H187.88ZM187.677 16.2828L180.317 1.20278L176.723 2.95722L184.083 18.0372L187.677 16.2828ZM178.52 4.08H183.68V0.079999H178.52V4.08ZM181.882 2.95685L186.682 12.7968L190.278 11.0432L185.478 1.20315L181.882 2.95685ZM190.317 12.7114L194.557 2.87144L190.883 1.28856L186.643 11.1286L190.317 12.7114ZM192.72 4.08H197.68V0.079999H192.72V4.08ZM195.856 1.25967L189.056 16.3797L192.704 18.0203L199.504 2.90033L195.856 1.25967ZM188.88 17.2V27H192.88V17.2H188.88ZM190.88 25H185.88V29H190.88V25ZM220.68 27H218.68C218.68 28.1046 219.575 29 220.68 29V27ZM220.68 22.92V20.92C219.575 20.92 218.68 21.8154 218.68 22.92H220.68ZM225.52 22.92V24.92C226.625 24.92 227.52 24.0246 227.52 22.92H225.52ZM225.52 6.16H227.52C227.52 5.05543 226.625 4.16 225.52 4.16V6.16ZM220.92 6.16H218.92C218.92 7.26457 219.815 8.16 220.92 8.16V6.16ZM220.92 2.08V0.079999C219.815 0.079999 218.92 0.975429 218.92 2.08H220.92ZM235.16 2.08H237.16C237.16 0.975429 236.265 0.079999 235.16 0.079999V2.08ZM235.16 6.16V8.16C236.265 8.16 237.16 7.26457 237.16 6.16H235.16ZM230.32 6.16V4.16C229.215 4.16 228.32 5.05543 228.32 6.16H230.32ZM230.32 22.92H228.32C228.32 24.0246 229.215 24.92 230.32 24.92V22.92ZM235.36 22.92H237.36C237.36 21.8154 236.465 20.92 235.36 20.92V22.92ZM235.36 27V29C236.465 29 237.36 28.1046 237.36 27H235.36ZM222.68 27V22.92H218.68V27H222.68ZM220.68 24.92H225.52V20.92H220.68V24.92ZM227.52 22.92V6.16H223.52V22.92H227.52ZM225.52 4.16H220.92V8.16H225.52V4.16ZM222.92 6.16V2.08H218.92V6.16H222.92ZM220.92 4.08H235.16V0.079999H220.92V4.08ZM233.16 2.08V6.16H237.16V2.08H233.16ZM235.16 4.16H230.32V8.16H235.16V4.16ZM228.32 6.16V22.92H232.32V6.16H228.32ZM230.32 24.92H235.36V20.92H230.32V24.92ZM233.36 22.92V27H237.36V22.92H233.36ZM235.36 25H220.68V29H235.36V25ZM239.28 2.08V0.079999C238.175 0.079999 237.28 0.975429 237.28 2.08H239.28ZM244.68 2.08L246.472 1.19105C246.134 0.510471 245.44 0.079999 244.68 0.079999V2.08ZM252.48 17.8L250.688 18.689C251.105 19.5277 252.047 19.9654 252.956 19.7425C253.866 19.5195 254.499 18.6954 254.48 17.7593L252.48 17.8ZM252.16 2.08V0.079999C251.623 0.079999 251.108 0.29634 250.731 0.68025C250.355 1.06416 250.149 1.58332 250.16 2.1207L252.16 2.08ZM257 2.08H259C259 0.975429 258.105 0.079999 257 0.079999V2.08ZM257 2.48L258.536 3.76037C258.836 3.40094 259 2.94787 259 2.48H257ZM256.72 3L254.797 2.45056C254.772 2.53803 254.753 2.6271 254.74 2.71715L256.72 3ZM256.68 27V29C257.785 29 258.68 28.1046 258.68 27H256.68ZM251.84 27L250.035 27.8615C250.367 28.5571 251.069 29 251.84 29V27ZM243.84 10.24L245.645 9.37846C245.242 8.5352 244.31 8.08303 243.398 8.28938C242.487 8.49573 241.84 9.3056 241.84 10.24H243.84ZM243.84 27V29C244.945 29 245.84 28.1046 245.84 27H243.84ZM239.28 27H237.28C237.28 28.1046 238.175 29 239.28 29V27ZM239.28 4.08H244.68V0.079999H239.28V4.08ZM242.888 2.96895L250.688 18.689L254.272 16.911L246.472 1.19105L242.888 2.96895ZM254.48 17.7593L254.16 2.03929L250.16 2.1207L250.48 17.8407L254.48 17.7593ZM252.16 4.08H256.64V0.079999H252.16V4.08ZM256.64 4.08H257V0.079999H256.64V4.08ZM255 2.08V2.48H259V2.08H255ZM255.464 1.19963C255.165 1.55787 254.932 1.97687 254.797 2.45056L258.643 3.54944C258.614 3.64979 258.568 3.72213 258.536 3.76037L255.464 1.19963ZM254.74 2.71715C254.691 3.05906 254.68 3.50652 254.68 3.96H258.68C258.68 3.75072 258.683 3.5868 258.688 3.46326C258.694 3.33093 258.7 3.28012 258.7 3.28285L254.74 2.71715ZM254.68 3.96V27H258.68V3.96H254.68ZM256.68 25H251.84V29H256.68V25ZM253.645 26.1385L245.645 9.37846L242.035 11.1015L250.035 27.8615L253.645 26.1385ZM241.84 10.24V27H245.84V10.24H241.84ZM243.84 25H239.28V29H243.84V25ZM241.28 27V2.08H237.28V27H241.28ZM279.28 2.08V0.079999C278.175 0.079999 277.28 0.975429 277.28 2.08H279.28ZM284.68 2.08L286.472 1.19105C286.134 0.510471 285.44 0.079999 284.68 0.079999V2.08ZM292.48 17.8L290.688 18.689C291.105 19.5277 292.047 19.9654 292.956 19.7425C293.866 19.5195 294.499 18.6954 294.48 17.7593L292.48 17.8ZM292.16 2.08V0.079999C291.623 0.079999 291.108 0.29634 290.731 0.68025C290.355 1.06416 290.149 1.58332 290.16 2.1207L292.16 2.08ZM297 2.08H299C299 0.975429 298.105 0.079999 297 0.079999V2.08ZM297 2.48L298.536 3.76037C298.836 3.40094 299 2.94787 299 2.48H297ZM296.72 3L294.797 2.45056C294.772 2.53803 294.753 2.6271 294.74 2.71715L296.72 3ZM296.68 27V29C297.785 29 298.68 28.1046 298.68 27H296.68ZM291.84 27L290.035 27.8615C290.367 28.5571 291.069 29 291.84 29V27ZM283.84 10.24L285.645 9.37846C285.242 8.5352 284.31 8.08303 283.398 8.28938C282.487 8.49573 281.84 9.3056 281.84 10.24H283.84ZM283.84 27V29C284.945 29 285.84 28.1046 285.84 27H283.84ZM279.28 27H277.28C277.28 28.1046 278.175 29 279.28 29V27ZM279.28 4.08H284.68V0.079999H279.28V4.08ZM282.888 2.96895L290.688 18.689L294.272 16.911L286.472 1.19105L282.888 2.96895ZM294.48 17.7593L294.16 2.03929L290.16 2.1207L290.48 17.8407L294.48 17.7593ZM292.16 4.08H296.64V0.079999H292.16V4.08ZM296.64 4.08H297V0.079999H296.64V4.08ZM295 2.08V2.48H299V2.08H295ZM295.464 1.19963C295.165 1.55787 294.932 1.97687 294.797 2.45056L298.643 3.54944C298.614 3.64979 298.568 3.72213 298.536 3.76037L295.464 1.19963ZM294.74 2.71715C294.691 3.05906 294.68 3.50652 294.68 3.96H298.68C298.68 3.75072 298.683 3.5868 298.688 3.46326C298.694 3.33093 298.7 3.28012 298.7 3.28285L294.74 2.71715ZM294.68 3.96V27H298.68V3.96H294.68ZM296.68 25H291.84V29H296.68V25ZM293.645 26.1385L285.645 9.37846L282.035 11.1015L290.035 27.8615L293.645 26.1385ZM281.84 10.24V27H285.84V10.24H281.84ZM283.84 25H279.28V29H283.84V25ZM281.28 27V2.08H277.28V27H281.28ZM305.88 27H303.88C303.88 28.1046 304.775 29 305.88 29V27ZM305.88 17.16H307.88C307.88 16.856 307.811 16.556 307.677 16.2828L305.88 17.16ZM298.52 2.08V0.079999C297.83 0.079999 297.189 0.435404 296.824 1.02039C296.458 1.60537 296.42 2.33737 296.723 2.95722L298.52 2.08ZM303.68 2.08L305.478 1.20315C305.142 0.515942 304.445 0.079999 303.68 0.079999V2.08ZM308.48 11.92L306.682 12.7968C307.025 13.4993 307.746 13.9378 308.527 13.9194C309.308 13.9011 310.007 13.4292 310.317 12.7114L308.48 11.92ZM312.72 2.08V0.079999C311.921 0.079999 311.199 0.555117 310.883 1.28856L312.72 2.08ZM317.68 2.08L319.504 2.90033C319.782 2.28145 319.728 1.56367 319.359 0.993872C318.991 0.424074 318.359 0.079999 317.68 0.079999V2.08ZM310.88 17.2L309.056 16.3797C308.94 16.6376 308.88 16.9172 308.88 17.2H310.88ZM310.88 27V29C311.985 29 312.88 28.1046 312.88 27H310.88ZM307.88 27V17.16H303.88V27H307.88ZM307.677 16.2828L300.317 1.20278L296.723 2.95722L304.083 18.0372L307.677 16.2828ZM298.52 4.08H303.68V0.079999H298.52V4.08ZM301.882 2.95685L306.682 12.7968L310.278 11.0432L305.478 1.20315L301.882 2.95685ZM310.317 12.7114L314.557 2.87144L310.883 1.28856L306.643 11.1286L310.317 12.7114ZM312.72 4.08H317.68V0.079999H312.72V4.08ZM315.856 1.25967L309.056 16.3797L312.704 18.0203L319.504 2.90033L315.856 1.25967ZM308.88 17.2V27H312.88V17.2H308.88ZM310.88 25H305.88V29H310.88V25ZM322.04 24.4L323.528 23.0642L323.528 23.0642L322.04 24.4ZM319.84 20.44L317.93 21.0348C317.934 21.0474 317.938 21.0599 317.943 21.0725L319.84 20.44ZM319.68 9.56L317.76 9.00134C317.756 9.01212 317.753 9.02293 317.75 9.03376L319.68 9.56ZM321.36 5.88L322.996 7.02989C323.001 7.02308 323.006 7.01624 323.011 7.00937L321.36 5.88ZM323.72 3.44L324.864 5.08079C324.875 5.07313 324.886 5.06535 324.896 5.05747L323.72 3.44ZM326.48 2.08L327.015 4.00703C327.032 4.00247 327.048 3.99769 327.064 3.9927L326.48 2.08ZM334.2 2.92L333.122 4.60454C333.135 4.61286 333.148 4.62103 333.161 4.62904L334.2 2.92ZM337.32 6.52L338.592 8.06326C339.292 7.48673 339.516 6.51194 339.139 5.68775L337.32 6.52ZM334.36 8.96L333.088 7.41674C333.078 7.42489 333.068 7.43314 333.058 7.44149L334.36 8.96ZM334.08 9.2L332.575 10.517C333.297 11.3423 334.549 11.4322 335.382 10.7185L334.08 9.2ZM333.8 8.88L331.815 8.63193C331.745 9.19812 331.919 9.76759 332.295 10.197L333.8 8.88ZM333.76 8.28L331.82 8.76507C331.825 8.78662 331.831 8.80808 331.837 8.82944L333.76 8.28ZM333.32 7.44L334.964 6.30158C334.938 6.26365 334.911 6.22663 334.882 6.19061L333.32 7.44ZM327.68 6.36L328.633 8.11858C328.641 8.11412 328.649 8.10959 328.657 8.10501L327.68 6.36ZM325.92 7.96L327.527 9.15046L327.527 9.15045L325.92 7.96ZM324.64 10.68L326.556 11.2547L326.559 11.2418L324.64 10.68ZM324.52 18.24L322.567 18.6688C322.571 18.6876 322.575 18.7064 322.58 18.7251L324.52 18.24ZM325.6 21L323.875 22.0114C323.88 22.0203 323.885 22.0292 323.89 22.038L325.6 21ZM327.2 22.72L326.107 24.3952C326.135 24.4134 326.164 24.4308 326.192 24.4476L327.2 22.72ZM331 23.04L330.398 21.1328L330.398 21.1328L331 23.04ZM332.4 22.24L333.717 23.7452C333.734 23.7301 333.751 23.7147 333.768 23.6991L332.4 22.24ZM333.6 20.64L334.788 19.0313C334.326 18.6902 333.74 18.564 333.179 18.6848C332.618 18.8056 332.136 19.1619 331.855 19.6628L333.6 20.64ZM337.12 23.24L338.814 24.3026C339.37 23.4167 339.149 22.2525 338.308 21.6313L337.12 23.24ZM333.68 26.56L334.53 28.3705C334.54 28.3658 334.55 28.361 334.56 28.3561L333.68 26.56ZM329.08 25.48C327.975 25.48 326.961 25.2757 326.018 24.8775L324.462 28.5625C325.919 29.1777 327.465 29.48 329.08 29.48V25.48ZM326.018 24.8775C325.109 24.4936 324.28 23.9013 323.528 23.0642L320.552 25.7358C321.667 26.9787 322.971 27.9331 324.462 28.5625L326.018 24.8775ZM323.528 23.0642C322.812 22.2658 322.202 21.2002 321.737 19.8075L317.943 21.0725C318.545 22.8798 319.401 24.4542 320.552 25.7358L323.528 23.0642ZM321.75 19.8452C321.318 18.4588 321.08 16.7485 321.08 14.68H317.08C317.08 17.0382 317.349 19.1679 317.93 21.0348L321.75 19.8452ZM321.08 14.68C321.08 12.8641 321.267 11.3413 321.61 10.0862L317.75 9.03376C317.293 10.7121 317.08 12.6026 317.08 14.68H321.08ZM321.6 10.1187C321.981 8.80962 322.458 7.79575 322.996 7.02989L319.724 4.73011C318.875 5.93758 318.232 7.37704 317.76 9.00134L321.6 10.1187ZM323.011 7.00937C323.587 6.16723 324.209 5.53724 324.864 5.08079L322.576 1.7992C321.471 2.56942 320.52 3.5661 319.709 4.75063L323.011 7.00937ZM324.896 5.05747C325.601 4.54519 326.306 4.20403 327.015 4.00703L325.945 0.152963C324.734 0.489299 323.599 1.0548 322.544 1.82253L324.896 5.05747ZM327.064 3.9927C327.849 3.75289 328.599 3.64 329.32 3.64V-0.36C328.174 -0.36 327.031 -0.179554 325.896 0.167296L327.064 3.9927ZM329.32 3.64C330.94 3.64 332.173 3.99731 333.122 4.60454L335.278 1.23545C333.56 0.136022 331.54 -0.36 329.32 -0.36V3.64ZM333.161 4.62904C334.15 5.2298 334.933 6.10939 335.501 7.35225L339.139 5.68775C338.267 3.78394 336.97 2.26353 335.239 1.21095L333.161 4.62904ZM336.048 4.97674L333.088 7.41674L335.632 10.5033L338.592 8.06326L336.048 4.97674ZM333.058 7.44149L332.778 7.68149L335.382 10.7185L335.662 10.4785L333.058 7.44149ZM335.585 7.88299L335.305 7.56299L332.295 10.197L332.575 10.517L335.585 7.88299ZM335.785 9.12807C335.841 8.67628 335.818 8.20274 335.683 7.73056L331.837 8.82944C331.809 8.73059 331.812 8.65705 331.815 8.63193L335.785 9.12807ZM335.7 7.79493C335.557 7.22093 335.239 6.69886 334.964 6.30158L331.676 8.57842C331.763 8.70504 331.813 8.79006 331.838 8.83801C331.85 8.86081 331.852 8.8673 331.849 8.85891C331.846 8.85128 331.833 8.81894 331.82 8.76507L335.7 7.79493ZM334.882 6.19061C334.186 5.32044 333.322 4.60137 332.257 4.23101L330.943 8.00899C331.105 8.0653 331.388 8.22623 331.758 8.68939L334.882 6.19061ZM332.257 4.23101C331.436 3.94528 330.587 3.8 329.72 3.8V7.8C330.133 7.8 330.538 7.86805 330.943 8.00899L332.257 4.23101ZM329.72 3.8C328.65 3.8 327.637 4.09193 326.703 4.61499L328.657 8.10501C329.057 7.8814 329.403 7.8 329.72 7.8V3.8ZM326.727 4.60142C325.778 5.11568 324.981 5.86765 324.313 6.76954L327.527 9.15045C327.926 8.61235 328.302 8.29765 328.633 8.11858L326.727 4.60142ZM324.313 6.76954C323.607 7.72262 323.09 8.85721 322.721 10.1182L326.559 11.2418C326.83 10.3161 327.166 9.63737 327.527 9.15046L324.313 6.76954ZM322.724 10.1053C322.334 11.4067 322.16 12.8765 322.16 14.48H326.16C326.16 13.1502 326.306 12.0866 326.556 11.2547L322.724 10.1053ZM322.16 14.48C322.16 16.0018 322.289 17.4036 322.567 18.6688L326.473 17.8112C326.271 16.8898 326.16 15.7849 326.16 14.48H322.16ZM322.58 18.7251C322.883 19.9364 323.306 21.0416 323.875 22.0114L327.325 19.9886C326.987 19.4118 326.691 18.6769 326.46 17.7549L322.58 18.7251ZM323.89 22.038C324.47 22.9917 325.2 23.8031 326.107 24.3952L328.293 21.0448C327.974 20.8369 327.637 20.5016 327.31 19.962L323.89 22.038ZM326.192 24.4476C327.141 25.0008 328.182 25.28 329.28 25.28V21.28C328.885 21.28 328.539 21.1859 328.208 20.9924L326.192 24.4476ZM329.28 25.28C330.084 25.28 330.866 25.1798 331.602 24.9472L330.398 21.1328C330.121 21.2202 329.756 21.28 329.28 21.28V25.28ZM331.602 24.9472C332.39 24.6985 333.097 24.288 333.717 23.7452L331.083 20.7348C330.85 20.9386 330.624 21.0615 330.398 21.1328L331.602 24.9472ZM333.768 23.6991C334.382 23.1233 334.9 22.4113 335.345 21.6172L331.855 19.6628C331.553 20.2021 331.271 20.5567 331.032 20.7809L333.768 23.6991ZM332.412 22.2487L335.932 24.8487L338.308 21.6313L334.788 19.0313L332.412 22.2487ZM335.426 22.1774C334.583 23.5213 333.691 24.3274 332.8 24.7639L334.56 28.3561C336.282 27.5126 337.684 26.1054 338.814 24.3026L335.426 22.1774ZM332.83 24.7495C331.841 25.2137 330.609 25.48 329.08 25.48V29.48C331.071 29.48 332.905 29.1329 334.53 28.3705L332.83 24.7495Z" fill="black" fill-opacity="0.85"/>
</svg>
