<svg width="98" height="36" viewBox="0 0 98 36" fill="none" xmlns="http://www.w3.org/2000/svg">
<path d="M1.10061 9.80212C-0.610755 -2.84173 19.9257 -0.20438 31.0496 1.32151C47.7354 3.61037 48.5911 25.2214 31.9052 33.7021C15.2194 42.1827 3.23982 25.6069 1.10061 9.80212Z" stroke="black"/>
<path d="M4.08657 11.4407C2.614 0.552958 20.2849 2.82401 29.8566 4.13797C44.2142 6.10893 44.9505 24.7185 30.5929 32.0212C16.2353 39.324 5.92729 25.0504 4.08657 11.4407Z" stroke="black"/>
<path d="M96.8994 9.80212C98.6108 -2.84173 78.0743 -0.20438 66.9504 1.32151C50.2646 3.61037 49.4089 25.2214 66.0948 33.7021C82.7806 42.1827 94.7602 25.6069 96.8994 9.80212Z" stroke="black"/>
<path d="M93.9134 11.4407C95.386 0.552958 77.7151 2.82401 68.1434 4.13797C53.7858 6.10893 53.0495 24.7185 67.4071 32.0212C81.7647 39.324 92.0727 25.0504 93.9134 11.4407Z" stroke="black"/>
<path d="M44 13C46.5 12.3334 52 11.4 54 13" stroke="black"/>
<path d="M42 9.5C44.8333 8.33334 51.6 6.7 56 9.5" stroke="black"/>
</svg>
