<svg width="235" height="235" viewBox="0 0 235 235" fill="none" xmlns="http://www.w3.org/2000/svg">
<path d="M106.682 24.2383C110.982 15.0724 124.018 15.0724 128.318 24.2383C131.895 31.8641 141.686 34.0987 148.218 28.7803C156.069 22.3877 167.814 28.0441 167.712 38.1679C167.626 46.5907 175.477 52.8521 183.67 50.8943C193.517 48.5412 201.645 58.7337 197.16 67.8102C193.428 75.3617 197.786 84.4097 206.016 86.2004C215.909 88.3528 218.81 101.063 210.831 107.294C204.192 112.479 204.192 122.521 210.831 127.706C218.81 133.937 215.909 146.647 206.016 148.8C197.786 150.59 193.428 159.638 197.16 167.19C201.645 176.266 193.517 186.459 183.67 184.106C175.477 182.148 167.626 188.409 167.712 196.832C167.814 206.956 156.069 212.612 148.218 206.22C141.686 200.901 131.895 203.136 128.318 210.762C124.018 219.928 110.982 219.928 106.682 210.762C103.105 203.136 93.3138 200.901 86.7821 206.22C78.9311 212.612 67.1855 206.956 67.2885 196.832C67.3741 188.409 59.5226 182.148 51.3301 184.106C41.483 186.459 33.3548 176.266 37.8401 167.19C41.5717 159.638 37.2145 150.59 28.9838 148.8C19.0909 146.647 16.19 133.937 24.1693 127.706C30.8079 122.521 30.8079 112.479 24.1693 107.294C16.19 101.063 19.0909 88.3528 28.9838 86.2004C37.2144 84.4097 41.5717 75.3617 37.8401 67.8102C33.3548 58.7337 41.483 48.5412 51.3301 50.8943C59.5226 52.8521 67.3741 46.5907 67.2885 38.1679C67.1855 28.0441 78.9311 22.3877 86.7821 28.7803C93.3138 34.0988 103.105 31.8641 106.682 24.2383Z" fill="#F3FFA8" stroke="black"/>
</svg>
