<?xml version="1.0" encoding="UTF-8"?><svg xmlns="http://www.w3.org/2000/svg" viewBox="0 0 792 612"><defs><style>.cls-1{fill:#292929;stroke:#fff;stroke-miterlimit:10;stroke-width:3px;}</style></defs><g id="Layer_2"><path class="cls-1" d="m154.6,247.14h512.44v257.36s4.56,25.81-31.89,22.02c-.76,0-453.22.38-453.22.38,0,0-30.37,1.9-27.33-25.43-.76-3.04,0-254.32,0-254.32Z"/></g><g id="Layer_5"><path class="cls-1" d="m144.34,142.29l520.36-.4s5.9.09,5.94,5.16c-.35-.48,1.75,41.66,1.75,41.66,0,0,1.28,3.16-6.33,3.22l-517.69,4.85-4.04-54.5Z"/><path class="cls-1" d="m228.95,193.52l438.27-.43s6.01,6.28,4.75,6.28.17,43.15.17,43.15c0,0,4.44,7.15-14,4.62H229.01l-.06-53.63Z"/></g><g id="Layer_6"><polygon class="cls-1" points="231.75 142.83 281.92 143 341.37 192.68 291.62 193.56 231.75 142.83"/><polygon class="cls-1" points="343.7 142.92 394.14 143.38 453.36 192 402.13 191.41 343.7 142.92"/><polygon class="cls-1" points="455.84 142.4 506.03 142.83 564.42 191.58 514.45 191.46 455.84 142.4"/><path class="cls-1" d="m567.56,142.12l50.71.56,53.1,45.18s2.61,4.7-4.02,4.17c.18-.2-40.72-1.04-40.72-1.04l-59.08-48.87Z"/><polygon class="cls-1" points="284.38 247.14 339.82 193.52 289.8 193.52 235.06 247.14 284.38 247.14"/><polygon class="cls-1" points="401.4 193.52 451.4 193.52 396 247.14 344.54 247.14 401.4 193.52"/><polygon class="cls-1" points="512.77 193.52 563.49 193.52 507.81 247.14 456.14 247.14 512.77 193.52"/><path class="cls-1" d="m624.13,193.52h44.83s3.3-.1,3.54,1.55c.24,0-53.09,52.08-53.09,52.08h-49.78l54.5-53.63Z"/></g><g id="Layer_3"><path class="cls-1" d="m144.68,240.97s-.05,6.17,9.93,6.17h74.41s22.74-4.59,12.32-28.6c-.63.32-30.95-71.7-54.01-78.65h-35.06s-6-.32-5.37,2.84c-.32,1.26-2.21,98.23-2.21,98.23Z"/></g><g id="Layer_7"><circle class="cls-1" cx="163.31" cy="150.71" r="7.45"/><circle class="cls-1" cx="164.18" cy="230.3" r="7.45"/><circle class="cls-1" cx="219.48" cy="229.63" r="7.45"/></g></svg>