<?xml version="1.0" encoding="UTF-8"?><svg id="Layer_3" xmlns="http://www.w3.org/2000/svg" viewBox="0 0 595.28 206.52"><defs><style>.cls-1{fill:#231f20;}</style></defs><path class="cls-1" d="m-.94,125.7v16.51s302.74,0,302.74,0v-17.46s-2.28,0-2.28,0v-52.51s2.28,0,2.28,0v-17.46s-302.74,0-302.74,0v16.34h-.94s0,54.58,0,54.58h.94Zm226.98-53.45h68.87s0,52.51,0,52.51h-68.87s0-52.51,0-52.51Zm-75.1,0h70.5s0,52.51,0,52.51h-70.5s0-52.51,0-52.51Zm-74.43,0h69.83s0,52.51,0,52.51h-69.83s0-52.51,0-52.51Zm-73.79,0h69.18s0,52.51,0,52.51H2.71s0-52.51,0-52.51Zm284.73,55.95h2.5c.99,0,1.8.81,1.8,1.8v5.21c0,.99-.81,1.8-1.8,1.8h-2.5c-.99,0-1.8-.81-1.8-1.8v-5.21c0-.99.81-1.8,1.8-1.8Zm-14.99,0h2.5c.99,0,1.8.81,1.8,1.8v5.21c0,.99-.81,1.8-1.8,1.8h-2.5c-.99,0-1.8-.81-1.8-1.8v-5.21c0-.99.81-1.8,1.8-1.8Zm-14.99,0h2.5c.99,0,1.8.81,1.8,1.8v5.21c0,.99-.81,1.8-1.8,1.8h-2.5c-.99,0-1.8-.81-1.8-1.8v-5.21c0-.99.81-1.8,1.8-1.8Zm-14.99,0h2.5c.99,0,1.8.81,1.8,1.8v5.21c0,.99-.81,1.8-1.8,1.8h-2.5c-.99,0-1.8-.81-1.8-1.8v-5.21c0-.99.81-1.8,1.8-1.8Zm-14.99,0h2.5c.99,0,1.8.81,1.8,1.8v5.21c0,.99-.81,1.8-1.8,1.8h-2.5c-.99,0-1.8-.81-1.8-1.8v-5.21c0-.99.81-1.8,1.8-1.8Zm-14.99,0h2.5c.99,0,1.8.81,1.8,1.8v5.21c0,.99-.81,1.8-1.8,1.8h-2.5c-.99,0-1.8-.81-1.8-1.8v-5.21c0-.99.81-1.8,1.8-1.8Zm-14.99,0h2.5c.99,0,1.8.81,1.8,1.8v5.21c0,.99-.81,1.8-1.8,1.8h-2.5c-.99,0-1.8-.81-1.8-1.8v-5.21c0-.99.81-1.8,1.8-1.8Zm-14.99,0h2.5c.99,0,1.8.81,1.8,1.8v5.21c0,.99-.81,1.8-1.8,1.8h-2.5c-.99,0-1.8-.81-1.8-1.8v-5.21c0-.99.81-1.8,1.8-1.8Zm-14.99,0h2.5c.99,0,1.8.81,1.8,1.8v5.21c0,.99-.81,1.8-1.8,1.8h-2.5c-.99,0-1.8-.81-1.8-1.8v-5.21c0-.99.81-1.8,1.8-1.8Zm-14.99,0h2.5c.99,0,1.8.81,1.8,1.8v5.21c0,.99-.81,1.8-1.8,1.8h-2.5c-.99,0-1.8-.81-1.8-1.8v-5.21c0-.99.81-1.8,1.8-1.8Zm-14.99,0h2.5c.99,0,1.8.81,1.8,1.8v5.21c0,.99-.81,1.8-1.8,1.8h-2.5c-.99,0-1.8-.81-1.8-1.8v-5.21c0-.99.81-1.8,1.8-1.8Zm-14.99,0h2.5c.99,0,1.8.81,1.8,1.8v5.21c0,.99-.81,1.8-1.8,1.8h-2.5c-.99,0-1.8-.81-1.8-1.8v-5.21c0-.99.81-1.8,1.8-1.8Zm-14.99,0h2.5c.99,0,1.8.81,1.8,1.8v5.21c0,.99-.81,1.8-1.8,1.8h-2.5c-.99,0-1.8-.81-1.8-1.8v-5.21c0-.99.81-1.8,1.8-1.8Zm-14.99,0h2.5c.99,0,1.8.81,1.8,1.8v5.21c0,.99-.81,1.8-1.8,1.8h-2.5c-.99,0-1.8-.81-1.8-1.8v-5.21c0-.99.81-1.8,1.8-1.8Zm-14.99,0h2.5c.99,0,1.8.81,1.8,1.8v5.21c0,.99-.81,1.8-1.8,1.8h-2.5c-.99,0-1.8-.81-1.8-1.8v-5.21c0-.99.81-1.8,1.8-1.8Zm-14.99,0h2.5c.99,0,1.8.81,1.8,1.8v5.21c0,.99-.81,1.8-1.8,1.8h-2.5c-.99,0-1.8-.81-1.8-1.8v-5.21c0-.99.81-1.8,1.8-1.8Zm-14.99,0h2.5c.99,0,1.8.81,1.8,1.8v5.21c0,.99-.81,1.8-1.8,1.8h-2.5c-.99,0-1.8-.81-1.8-1.8v-5.21c0-.99.81-1.8,1.8-1.8Zm-14.99,0h2.5c.99,0,1.8.81,1.8,1.8v5.21c0,.99-.81,1.8-1.8,1.8h-2.5c-.99,0-1.8-.81-1.8-1.8v-5.21c0-.99.81-1.8,1.8-1.8Zm-14.99,0h2.5c.99,0,1.8.81,1.8,1.8v5.21c0,.99-.81,1.8-1.8,1.8h-2.5c-.99,0-1.8-.81-1.8-1.8v-5.21c0-.99.81-1.8,1.8-1.8Zm-14.99,0h2.5c.99,0,1.8.81,1.8,1.8v5.21c0,.99-.81,1.8-1.8,1.8h-2.5c-.99,0-1.8-.81-1.8-1.8v-5.21c0-.99.81-1.8,1.8-1.8ZM287.44,59.05h2.5c.99,0,1.8.81,1.8,1.8v5.21c0,.99-.81,1.8-1.8,1.8h-2.5c-.99,0-1.8-.81-1.8-1.8v-5.21c0-.99.81-1.8,1.8-1.8Zm-14.99,0h2.5c.99,0,1.8.81,1.8,1.8v5.21c0,.99-.81,1.8-1.8,1.8h-2.5c-.99,0-1.8-.81-1.8-1.8v-5.21c0-.99.81-1.8,1.8-1.8Zm-14.99,0h2.5c.99,0,1.8.81,1.8,1.8v5.21c0,.99-.81,1.8-1.8,1.8h-2.5c-.99,0-1.8-.81-1.8-1.8v-5.21c0-.99.81-1.8,1.8-1.8Zm-14.99,0h2.5c.99,0,1.8.81,1.8,1.8v5.21c0,.99-.81,1.8-1.8,1.8h-2.5c-.99,0-1.8-.81-1.8-1.8v-5.21c0-.99.81-1.8,1.8-1.8Zm-14.99,0h2.5c.99,0,1.8.81,1.8,1.8v5.21c0,.99-.81,1.8-1.8,1.8h-2.5c-.99,0-1.8-.81-1.8-1.8v-5.21c0-.99.81-1.8,1.8-1.8Zm-14.99,0h2.5c.99,0,1.8.81,1.8,1.8v5.21c0,.99-.81,1.8-1.8,1.8h-2.5c-.99,0-1.8-.81-1.8-1.8v-5.21c0-.99.81-1.8,1.8-1.8Zm-14.99,0h2.5c.99,0,1.8.81,1.8,1.8v5.21c0,.99-.81,1.8-1.8,1.8h-2.5c-.99,0-1.8-.81-1.8-1.8v-5.21c0-.99.81-1.8,1.8-1.8Zm-14.99,0h2.5c.99,0,1.8.81,1.8,1.8v5.21c0,.99-.81,1.8-1.8,1.8h-2.5c-.99,0-1.8-.81-1.8-1.8v-5.21c0-.99.81-1.8,1.8-1.8Zm-14.99,0h2.5c.99,0,1.8.81,1.8,1.8v5.21c0,.99-.81,1.8-1.8,1.8h-2.5c-.99,0-1.8-.81-1.8-1.8v-5.21c0-.99.81-1.8,1.8-1.8Zm-14.99,0h2.5c.99,0,1.8.81,1.8,1.8v5.21c0,.99-.81,1.8-1.8,1.8h-2.5c-.99,0-1.8-.81-1.8-1.8v-5.21c0-.99.81-1.8,1.8-1.8Zm-14.99,0h2.5c.99,0,1.8.81,1.8,1.8v5.21c0,.99-.81,1.8-1.8,1.8h-2.5c-.99,0-1.8-.81-1.8-1.8v-5.21c0-.99.81-1.8,1.8-1.8Zm-14.99,0h2.5c.99,0,1.8.81,1.8,1.8v5.21c0,.99-.81,1.8-1.8,1.8h-2.5c-.99,0-1.8-.81-1.8-1.8v-5.21c0-.99.81-1.8,1.8-1.8Zm-14.99,0h2.5c.99,0,1.8.81,1.8,1.8v5.21c0,.99-.81,1.8-1.8,1.8h-2.5c-.99,0-1.8-.81-1.8-1.8v-5.21c0-.99.81-1.8,1.8-1.8Zm-14.99,0h2.5c.99,0,1.8.81,1.8,1.8v5.21c0,.99-.81,1.8-1.8,1.8h-2.5c-.99,0-1.8-.81-1.8-1.8v-5.21c0-.99.81-1.8,1.8-1.8Zm-14.99,0h2.5c.99,0,1.8.81,1.8,1.8v5.21c0,.99-.81,1.8-1.8,1.8h-2.5c-.99,0-1.8-.81-1.8-1.8v-5.21c0-.99.81-1.8,1.8-1.8Zm-14.99,0h2.5c.99,0,1.8.81,1.8,1.8v5.21c0,.99-.81,1.8-1.8,1.8h-2.5c-.99,0-1.8-.81-1.8-1.8v-5.21c0-.99.81-1.8,1.8-1.8Zm-14.99,0h2.5c.99,0,1.8.81,1.8,1.8v5.21c0,.99-.81,1.8-1.8,1.8h-2.5c-.99,0-1.8-.81-1.8-1.8v-5.21c0-.99.81-1.8,1.8-1.8Zm-14.99,0h2.5c.99,0,1.8.81,1.8,1.8v5.21c0,.99-.81,1.8-1.8,1.8h-2.5c-.99,0-1.8-.81-1.8-1.8v-5.21c0-.99.81-1.8,1.8-1.8Zm-14.99,0h2.5c.99,0,1.8.81,1.8,1.8v5.21c0,.99-.81,1.8-1.8,1.8h-2.5c-.99,0-1.8-.81-1.8-1.8v-5.21c0-.99.81-1.8,1.8-1.8Zm-14.99,0h2.5c.99,0,1.8.81,1.8,1.8v5.21c0,.99-.81,1.8-1.8,1.8h-2.5c-.99,0-1.8-.81-1.8-1.8v-5.21c0-.99.81-1.8,1.8-1.8Z"/><path class="cls-1" d="m595.28,71.29v-16.51h-302.74v17.46h2.28v52.51h-2.28v17.46h302.74v-16.34h.94v-54.58h-.94Zm-226.98,53.45h-68.87v-52.51h68.87v52.51Zm75.1,0h-70.5v-52.51h70.5v52.51Zm74.43,0h-69.83v-52.51h69.83v52.51Zm73.79,0h-69.18v-52.51h69.18v52.51Zm-284.73-55.94h-2.5c-.99,0-1.8-.81-1.8-1.8v-5.21c0-.99.81-1.8,1.8-1.8h2.5c.99,0,1.8.81,1.8,1.8v5.21c0,.99-.81,1.8-1.8,1.8Zm14.99,0h-2.5c-.99,0-1.8-.81-1.8-1.8v-5.21c0-.99.81-1.8,1.8-1.8h2.5c.99,0,1.8.81,1.8,1.8v5.21c0,.99-.81,1.8-1.8,1.8Zm14.99,0h-2.5c-.99,0-1.8-.81-1.8-1.8v-5.21c0-.99.81-1.8,1.8-1.8h2.5c.99,0,1.8.81,1.8,1.8v5.21c0,.99-.81,1.8-1.8,1.8Zm14.99,0h-2.5c-.99,0-1.8-.81-1.8-1.8v-5.21c0-.99.81-1.8,1.8-1.8h2.5c.99,0,1.8.81,1.8,1.8v5.21c0,.99-.81,1.8-1.8,1.8Zm14.99,0h-2.5c-.99,0-1.8-.81-1.8-1.8v-5.21c0-.99.81-1.8,1.8-1.8h2.5c.99,0,1.8.81,1.8,1.8v5.21c0,.99-.81,1.8-1.8,1.8Zm14.99,0h-2.5c-.99,0-1.8-.81-1.8-1.8v-5.21c0-.99.81-1.8,1.8-1.8h2.5c.99,0,1.8.81,1.8,1.8v5.21c0,.99-.81,1.8-1.8,1.8Zm14.99,0h-2.5c-.99,0-1.8-.81-1.8-1.8v-5.21c0-.99.81-1.8,1.8-1.8h2.5c.99,0,1.8.81,1.8,1.8v5.21c0,.99-.81,1.8-1.8,1.8Zm14.99,0h-2.5c-.99,0-1.8-.81-1.8-1.8v-5.21c0-.99.81-1.8,1.8-1.8h2.5c.99,0,1.8.81,1.8,1.8v5.21c0,.99-.81,1.8-1.8,1.8Zm14.99,0h-2.5c-.99,0-1.8-.81-1.8-1.8v-5.21c0-.99.81-1.8,1.8-1.8h2.5c.99,0,1.8.81,1.8,1.8v5.21c0,.99-.81,1.8-1.8,1.8Zm14.99,0h-2.5c-.99,0-1.8-.81-1.8-1.8v-5.21c0-.99.81-1.8,1.8-1.8h2.5c.99,0,1.8.81,1.8,1.8v5.21c0,.99-.81,1.8-1.8,1.8Zm14.99,0h-2.5c-.99,0-1.8-.81-1.8-1.8v-5.21c0-.99.81-1.8,1.8-1.8h2.5c.99,0,1.8.81,1.8,1.8v5.21c0,.99-.81,1.8-1.8,1.8Zm14.99,0h-2.5c-.99,0-1.8-.81-1.8-1.8v-5.21c0-.99.81-1.8,1.8-1.8h2.5c.99,0,1.8.81,1.8,1.8v5.21c0,.99-.81,1.8-1.8,1.8Zm14.99,0h-2.5c-.99,0-1.8-.81-1.8-1.8v-5.21c0-.99.81-1.8,1.8-1.8h2.5c.99,0,1.8.81,1.8,1.8v5.21c0,.99-.81,1.8-1.8,1.8Zm14.99,0h-2.5c-.99,0-1.8-.81-1.8-1.8v-5.21c0-.99.81-1.8,1.8-1.8h2.5c.99,0,1.8.81,1.8,1.8v5.21c0,.99-.81,1.8-1.8,1.8Zm14.99,0h-2.5c-.99,0-1.8-.81-1.8-1.8v-5.21c0-.99.81-1.8,1.8-1.8h2.5c.99,0,1.8.81,1.8,1.8v5.21c0,.99-.81,1.8-1.8,1.8Zm14.99,0h-2.5c-.99,0-1.8-.81-1.8-1.8v-5.21c0-.99.81-1.8,1.8-1.8h2.5c.99,0,1.8.81,1.8,1.8v5.21c0,.99-.81,1.8-1.8,1.8Zm14.99,0h-2.5c-.99,0-1.8-.81-1.8-1.8v-5.21c0-.99.81-1.8,1.8-1.8h2.5c.99,0,1.8.81,1.8,1.8v5.21c0,.99-.81,1.8-1.8,1.8Zm14.99,0h-2.5c-.99,0-1.8-.81-1.8-1.8v-5.21c0-.99.81-1.8,1.8-1.8h2.5c.99,0,1.8.81,1.8,1.8v5.21c0,.99-.81,1.8-1.8,1.8Zm14.99,0h-2.5c-.99,0-1.8-.81-1.8-1.8v-5.21c0-.99.81-1.8,1.8-1.8h2.5c.99,0,1.8.81,1.8,1.8v5.21c0,.99-.81,1.8-1.8,1.8Zm14.99,0h-2.5c-.99,0-1.8-.81-1.8-1.8v-5.21c0-.99.81-1.8,1.8-1.8h2.5c.99,0,1.8.81,1.8,1.8v5.21c0,.99-.81,1.8-1.8,1.8Zm-284.72,69.14h-2.5c-.99,0-1.8-.81-1.8-1.8v-5.21c0-.99.81-1.8,1.8-1.8h2.5c.99,0,1.8.81,1.8,1.8v5.21c0,.99-.81,1.8-1.8,1.8Zm14.99,0h-2.5c-.99,0-1.8-.81-1.8-1.8v-5.21c0-.99.81-1.8,1.8-1.8h2.5c.99,0,1.8.81,1.8,1.8v5.21c0,.99-.81,1.8-1.8,1.8Zm14.99,0h-2.5c-.99,0-1.8-.81-1.8-1.8v-5.21c0-.99.81-1.8,1.8-1.8h2.5c.99,0,1.8.81,1.8,1.8v5.21c0,.99-.81,1.8-1.8,1.8Zm14.99,0h-2.5c-.99,0-1.8-.81-1.8-1.8v-5.21c0-.99.81-1.8,1.8-1.8h2.5c.99,0,1.8.81,1.8,1.8v5.21c0,.99-.81,1.8-1.8,1.8Zm14.99,0h-2.5c-.99,0-1.8-.81-1.8-1.8v-5.21c0-.99.81-1.8,1.8-1.8h2.5c.99,0,1.8.81,1.8,1.8v5.21c0,.99-.81,1.8-1.8,1.8Zm14.99,0h-2.5c-.99,0-1.8-.81-1.8-1.8v-5.21c0-.99.81-1.8,1.8-1.8h2.5c.99,0,1.8.81,1.8,1.8v5.21c0,.99-.81,1.8-1.8,1.8Zm14.99,0h-2.5c-.99,0-1.8-.81-1.8-1.8v-5.21c0-.99.81-1.8,1.8-1.8h2.5c.99,0,1.8.81,1.8,1.8v5.21c0,.99-.81,1.8-1.8,1.8Zm14.99,0h-2.5c-.99,0-1.8-.81-1.8-1.8v-5.21c0-.99.81-1.8,1.8-1.8h2.5c.99,0,1.8.81,1.8,1.8v5.21c0,.99-.81,1.8-1.8,1.8Zm14.99,0h-2.5c-.99,0-1.8-.81-1.8-1.8v-5.21c0-.99.81-1.8,1.8-1.8h2.5c.99,0,1.8.81,1.8,1.8v5.21c0,.99-.81,1.8-1.8,1.8Zm14.99,0h-2.5c-.99,0-1.8-.81-1.8-1.8v-5.21c0-.99.81-1.8,1.8-1.8h2.5c.99,0,1.8.81,1.8,1.8v5.21c0,.99-.81,1.8-1.8,1.8Zm14.99,0h-2.5c-.99,0-1.8-.81-1.8-1.8v-5.21c0-.99.81-1.8,1.8-1.8h2.5c.99,0,1.8.81,1.8,1.8v5.21c0,.99-.81,1.8-1.8,1.8Zm14.99,0h-2.5c-.99,0-1.8-.81-1.8-1.8v-5.21c0-.99.81-1.8,1.8-1.8h2.5c.99,0,1.8.81,1.8,1.8v5.21c0,.99-.81,1.8-1.8,1.8Zm14.99,0h-2.5c-.99,0-1.8-.81-1.8-1.8v-5.21c0-.99.81-1.8,1.8-1.8h2.5c.99,0,1.8.81,1.8,1.8v5.21c0,.99-.81,1.8-1.8,1.8Zm14.99,0h-2.5c-.99,0-1.8-.81-1.8-1.8v-5.21c0-.99.81-1.8,1.8-1.8h2.5c.99,0,1.8.81,1.8,1.8v5.21c0,.99-.81,1.8-1.8,1.8Zm14.99,0h-2.5c-.99,0-1.8-.81-1.8-1.8v-5.21c0-.99.81-1.8,1.8-1.8h2.5c.99,0,1.8.81,1.8,1.8v5.21c0,.99-.81,1.8-1.8,1.8Zm14.99,0h-2.5c-.99,0-1.8-.81-1.8-1.8v-5.21c0-.99.81-1.8,1.8-1.8h2.5c.99,0,1.8.81,1.8,1.8v5.21c0,.99-.81,1.8-1.8,1.8Zm14.99,0h-2.5c-.99,0-1.8-.81-1.8-1.8v-5.21c0-.99.81-1.8,1.8-1.8h2.5c.99,0,1.8.81,1.8,1.8v5.21c0,.99-.81,1.8-1.8,1.8Zm14.99,0h-2.5c-.99,0-1.8-.81-1.8-1.8v-5.21c0-.99.81-1.8,1.8-1.8h2.5c.99,0,1.8.81,1.8,1.8v5.21c0,.99-.81,1.8-1.8,1.8Zm14.99,0h-2.5c-.99,0-1.8-.81-1.8-1.8v-5.21c0-.99.81-1.8,1.8-1.8h2.5c.99,0,1.8.81,1.8,1.8v5.21c0,.99-.81,1.8-1.8,1.8Zm14.99,0h-2.5c-.99,0-1.8-.81-1.8-1.8v-5.21c0-.99.81-1.8,1.8-1.8h2.5c.99,0,1.8.81,1.8,1.8v5.21c0,.99-.81,1.8-1.8,1.8Z"/></svg>