<?xml version="1.0" encoding="UTF-8"?><svg id="queens" xmlns="http://www.w3.org/2000/svg" viewBox="0 0 792 506.22"><defs><style>.cls-1{fill:#68924b;stroke:#fff;stroke-miterlimit:10;}</style></defs><rect class="cls-1" x="130.67" y="216.71" width="19.53" height="43.18"/><rect class="cls-1" x="218.96" y="221.5" width="19.53" height="40.26"/><rect class="cls-1" x="277.15" y="270.04" width="19.53" height="29.91"/><rect class="cls-1" x="336.27" y="266.81" width="19.53" height="31.22"/><rect class="cls-1" x="395.26" y="158.27" width="19.53" height="46"/><rect class="cls-1" x="424.69" y="220.63" width="19.53" height="45.06"/><rect class="cls-1" x="453.72" y="274.83" width="19.53" height="6.54"/><rect class="cls-1" x="482.61" y="293.22" width="19.53" height="13.79"/><rect class="cls-1" x="512.84" y="195.84" width="19.53" height="57.27"/><rect class="cls-1" x="542.14" y="162.56" width="19.53" height="45.16"/><rect class="cls-1" x="571.3" y="162.07" width="19.53" height="40.7"/><rect class="cls-1" x="599.92" y="156.51" width="19.53" height="43.18"/><rect class="cls-1" x="630.42" y="234.06" width="19.53" height="28.14"/><rect class="cls-1" x="659.32" y="204.11" width="19.53" height="37.86"/><rect class="cls-1" x="718.04" y="200.73" width="19.53" height="36.82"/></svg>