<?xml version="1.0" encoding="UTF-8"?><svg xmlns="http://www.w3.org/2000/svg" viewBox="0 0 506.22 792"><defs><style>.cls-1{fill:#fff;font-family:Poppins-Regular, Poppins;font-size:11px;}.cls-2{fill:#68924b;}.cls-2,.cls-3,.cls-4,.cls-5,.cls-6,.cls-7,.cls-8{stroke:#fff;stroke-miterlimit:10;}.cls-3{fill:#727fb9;}.cls-4{fill:#fbe54a;}.cls-5{fill:#da3832;}.cls-6{fill:#642e76;}.cls-7,.cls-8{fill:none;}.cls-8{stroke-width:.5px;}</style></defs><g id="Layer_2"><text class="cls-1" transform="translate(118.21 83.22)"><tspan x="0" y="0">Talk Show</tspan></text><text class="cls-1" transform="translate(69.81 112.71)"><tspan x="0" y="0">TV - Morning Show</tspan></text><text class="cls-1" transform="translate(97 142.2)"><tspan x="0" y="0">Documentary</tspan></text><text class="cls-1" transform="translate(72.32 172.16)"><tspan x="0" y="0">TV - Cable (other)</tspan></text><text class="cls-1" transform="translate(56.9 195.09)"><tspan x="0" y="0">Industrial/ Corporate</tspan><tspan x="0" y="13.2">Commercial</tspan></text><text class="cls-1" transform="translate(106.45 230.67)"><tspan x="0" y="0">Music Video</tspan></text><text class="cls-1" transform="translate(110.59 260.15)"><tspan x="0" y="0">TV - Reality</tspan></text><text class="cls-1" transform="translate(129.66 289.64)"><tspan x="0" y="0">Student</tspan></text><text class="cls-1" transform="translate(28.02 319.64)"><tspan x="0" y="0">TV - Special/Awards Show</tspan></text><text class="cls-1" transform="translate(124.32 348.62)"><tspan x="0" y="0">TV - Pilot</tspan></text><text class="cls-1" transform="translate(108.44 378.11)"><tspan x="0" y="0">TV - Variety</tspan></text><text class="cls-1" transform="translate(136.58 407.6)"><tspan x="0" y="0">Promo</tspan></text><text class="cls-1" transform="translate(111.4 437.55)"><tspan x="0" y="0">TV (others)</tspan></text><text class="cls-1" transform="translate(118.6 466.58)"><tspan x="0" y="0">Short Film</tspan></text><text class="cls-1" transform="translate(86.51 496.06)"><tspan x="0" y="0">TV - Mini-Series</tspan></text><text class="cls-1" transform="translate(117.83 525.55)"><tspan x="0" y="0">TV - News</tspan></text><text class="cls-1" transform="translate(149.34 555.04)"><tspan x="0" y="0">WEB</tspan></text><text class="cls-1" transform="translate(79.81 584.53)"><tspan x="0" y="0">Still Photography</tspan></text><text class="cls-1" transform="translate(103.83 614.02)"><tspan x="0" y="0">Commercial</tspan></text><text class="cls-1" transform="translate(105.48 643.51)"><tspan x="0" y="0">Feature Film</tspan></text><text class="cls-1" transform="translate(64.75 672.99)"><tspan x="0" y="0">TV - Cable episodic</tspan></text><text class="cls-1" transform="translate(130.29 702.48)"><tspan x="0" y="0">Theater</tspan></text><text class="cls-1" transform="translate(66.89 731.97)"><tspan x="0" y="0">TV - Episodic series</tspan></text><text class="cls-1" transform="translate(176.7 55.33)"><tspan x="0" y="0">0</tspan></text><text class="cls-1" transform="translate(240.06 55.33)"><tspan x="0" y="0">20</tspan></text><text class="cls-1" transform="translate(306.3 55.33)"><tspan x="0" y="0">40</tspan></text><text class="cls-1" transform="translate(372.79 55.33)"><tspan x="0" y="0">60</tspan></text><text class="cls-1" transform="translate(439.35 55.33)"><tspan x="0" y="0">80</tspan></text><line class="cls-7" x1="177.38" y1="60.94" x2="177.38" y2="738.93"/><line class="cls-8" x1="245.71" y1="60.94" x2="245.71" y2="738.93"/><line class="cls-8" x1="310.81" y1="60.94" x2="310.81" y2="738.93"/><line class="cls-8" x1="379.08" y1="60.94" x2="379.08" y2="738.93"/><line class="cls-8" x1="444.81" y1="60.94" x2="444.81" y2="738.93"/></g><g id="manhattan"><rect class="cls-6" x="183.7" y="64.83" width="19.53" height="32.19" transform="translate(274.39 -112.54) rotate(90)"/><rect class="cls-6" x="185.46" y="92.5" width="19.53" height="35.71" transform="translate(305.58 -84.87) rotate(90)"/><rect class="cls-6" x="232.36" y="129" width="19.53" height="21.02" transform="translate(381.64 -102.61) rotate(90)"/><rect class="cls-6" x="223.55" y="143.51" width="19.53" height="49.8" transform="translate(401.72 -64.91) rotate(90)"/><rect class="cls-6" x="262.38" y="192.75" width="19.53" height="11.51" transform="translate(470.65 -73.64) rotate(90)"/><rect class="cls-6" x="226.06" y="212.87" width="19.53" height="29.86" transform="translate(463.63 -8.03) rotate(90)"/><rect class="cls-6" x="263.84" y="239.4" width="19.53" height="34.85" transform="translate(530.43 -16.77) rotate(90)"/><rect class="cls-6" x="193.72" y="276.9" width="19.53" height="18.17" transform="translate(489.48 82.5) rotate(90)"/><rect class="cls-6" x="207.23" y="291.81" width="19.53" height="47.74" transform="translate(532.68 98.7) rotate(90)"/><rect class="cls-6" x="198.43" y="338.73" width="19.53" height="12.76" transform="translate(553.31 136.92) rotate(90)"/><rect class="cls-6" x="250.74" y="351.7" width="19.53" height="45.15" transform="translate(634.78 113.77) rotate(90)"/><rect class="cls-6" x="277.82" y="383.44" width="19.53" height="41.32" transform="translate(691.69 116.52) rotate(90)"/><rect class="cls-6" x="217.75" y="414.21" width="19.53" height="38.64" transform="translate(661.05 206.02) rotate(90)"/><rect class="cls-6" x="209.34" y="450.63" width="19.53" height="23.87" transform="translate(681.66 243.46) rotate(90)"/><rect class="cls-6" x="187.95" y="483.65" width="19.53" height="15.61" transform="translate(689.17 293.74) rotate(90)"/><rect class="cls-6" x="231.92" y="503.96" width="19.53" height="35.46" transform="translate(763.37 280.01) rotate(90)"/><rect class="cls-6" x="275.05" y="531" width="19.53" height="39.97" transform="translate(835.8 266.16) rotate(90)"/><rect class="cls-6" x="278.08" y="558.23" width="19.53" height="43.82" transform="translate(867.98 292.3) rotate(90)"/><rect class="cls-6" x="282.87" y="588.82" width="19.53" height="39.9" transform="translate(901.4 316.14) rotate(90)"/><rect class="cls-6" x="227.87" y="626.58" width="19.53" height="25.38" transform="translate(876.9 401.64) rotate(90)"/><rect class="cls-6" x="248.37" y="655.74" width="19.53" height="24.85" transform="translate(926.3 410.03) rotate(90)"/><rect class="cls-6" x="294.24" y="671.91" width="19.53" height="51.09" transform="translate(1001.46 393.45) rotate(90)"/><rect class="cls-6" x="251.26" y="712.94" width="19.53" height="27.89" transform="translate(987.91 465.86) rotate(90)"/></g><g id="staten"><rect class="cls-3" x="318.31" y="710.54" width="19.68" height="32.7" transform="translate(1055.03 398.74) rotate(90)"/><rect class="cls-3" x="319.6" y="647.15" width="19.68" height="42.03" transform="translate(997.6 338.73) rotate(90)"/><rect class="cls-3" x="286.33" y="621.56" width="19.68" height="35.41" transform="translate(935.44 343.1) rotate(90)"/><rect class="cls-3" x="362.47" y="558.29" width="19.68" height="43.71" transform="translate(952.45 207.84) rotate(90)"/><rect class="cls-3" x="241.43" y="448.99" width="19.68" height="27.15" transform="translate(713.83 211.3) rotate(90)"/><rect class="cls-3" x="312.11" y="403.48" width="19.68" height="60.11" transform="translate(755.49 111.58) rotate(90)"/><rect class="cls-3" x="367.73" y="380.79" width="19.68" height="46.64" transform="translate(781.68 26.54) rotate(90)"/></g><g id="queens"><rect class="cls-2" x="264.46" y="117.93" width="19.53" height="43.18" transform="translate(413.74 -134.71) rotate(90)"/><rect class="cls-2" x="261.13" y="207.67" width="19.53" height="40.26" transform="translate(498.69 -43.09) rotate(90)"/><rect class="cls-2" x="217.76" y="271.04" width="19.53" height="29.91" transform="translate(513.52 58.46) rotate(90)"/><rect class="cls-2" x="220.34" y="329.5" width="19.53" height="31.22" transform="translate(575.22 115.01) rotate(90)"/><rect class="cls-2" x="321.48" y="381.11" width="19.53" height="46" transform="translate(735.35 72.86) rotate(90)"/><rect class="cls-2" x="259.6" y="411.01" width="19.53" height="45.06" transform="translate(702.9 164.17) rotate(90)"/><rect class="cls-2" x="224.65" y="459.29" width="19.53" height="6.54" transform="translate(696.98 228.14) rotate(90)"/><rect class="cls-2" x="202.64" y="484.56" width="19.53" height="13.79" transform="translate(703.86 279.05) rotate(90)"/><rect class="cls-2" x="278.29" y="493.05" width="19.53" height="57.27" transform="translate(809.74 233.64) rotate(90)"/><rect class="cls-2" x="317.62" y="528.4" width="19.53" height="45.16" transform="translate(878.37 223.6) rotate(90)"/><rect class="cls-2" x="320.34" y="559.79" width="19.53" height="40.7" transform="translate(910.25 250.04) rotate(90)"/><rect class="cls-2" x="324.66" y="587.18" width="19.53" height="43.18" transform="translate(943.2 274.34) rotate(90)"/><rect class="cls-2" x="254.63" y="625.2" width="19.53" height="28.14" transform="translate(903.66 374.88) rotate(90)"/><rect class="cls-2" x="279.72" y="649.23" width="19.53" height="37.86" transform="translate(957.65 378.67) rotate(90)"/><rect class="cls-2" x="283.62" y="708.48" width="19.53" height="36.82" transform="translate(1020.27 433.5) rotate(90)"/></g><g id="brooklyn"><rect class="cls-5" x="195" y="112.67" width="19.53" height="53.69" transform="translate(344.28 -65.25) rotate(90)"/><rect class="cls-5" x="183.4" y="153.16" width="19.53" height="30.5" transform="translate(361.58 -24.76) rotate(90)"/><rect class="cls-5" x="235.33" y="177.21" width="19.53" height="42.59" transform="translate(443.6 -46.59) rotate(90)"/><rect class="cls-5" x="189.55" y="205.86" width="19.53" height="43.88" transform="translate(427.11 28.49) rotate(90)"/><rect class="cls-5" x="225.03" y="235.45" width="19.53" height="42.75" transform="translate(491.63 22.03) rotate(90)"/><rect class="cls-5" x="176.4" y="277.75" width="19.53" height="16.49" transform="translate(472.15 99.83) rotate(90)"/><rect class="cls-5" x="175.75" y="308.09" width="19.53" height="15.2" transform="translate(501.2 130.17) rotate(90)"/><rect class="cls-5" x="181.83" y="334.7" width="19.53" height="20.83" transform="translate(536.71 153.52) rotate(90)"/><rect class="cls-5" x="209.99" y="356.33" width="19.53" height="35.89" transform="translate(594.03 154.52) rotate(90)"/><rect class="cls-5" x="234.51" y="381.37" width="19.53" height="45.47" transform="translate(648.39 159.83) rotate(90)"/><rect class="cls-5" x="197.09" y="432.2" width="19.53" height="2.68" transform="translate(640.39 226.68) rotate(90)"/><rect class="cls-5" x="182.72" y="447.93" width="19.53" height="29.14" transform="translate(654.98 270.01) rotate(90)"/><rect class="cls-5" x="173.88" y="485.19" width="19.53" height="12.53" transform="translate(675.1 307.81) rotate(90)"/><rect class="cls-5" x="191.28" y="498.55" width="19.53" height="46.27" transform="translate(722.74 320.64) rotate(90)"/><rect class="cls-5" x="233.79" y="529.7" width="19.53" height="42.56" transform="translate(794.54 307.43) rotate(90)"/><rect class="cls-5" x="235.29" y="559.27" width="19.53" height="41.75" transform="translate(825.2 335.09) rotate(90)"/><rect class="cls-5" x="240.14" y="586.25" width="19.53" height="45.05" transform="translate(858.67 358.87) rotate(90)"/><rect class="cls-5" x="200.7" y="624.8" width="19.53" height="28.95" transform="translate(849.74 428.8) rotate(90)"/><rect class="cls-5" x="217.29" y="649.51" width="19.53" height="37.31" transform="translate(895.22 441.1) rotate(90)"/><rect class="cls-5" x="243.63" y="672.39" width="19.53" height="50.13" transform="translate(950.85 444.06) rotate(90)"/><rect class="cls-5" x="218.57" y="708.23" width="19.53" height="37.31" transform="translate(955.22 498.55) rotate(90)"/></g><g id="bronx"><rect class="cls-4" x="191.09" y="175.57" width="19.53" height="45.88" transform="translate(399.36 -2.35) rotate(90)"/><rect class="cls-4" x="185.9" y="239.14" width="19.53" height="35.51" transform="translate(452.57 61.23) rotate(90)"/><rect class="cls-4" x="169.78" y="343.48" width="19.53" height="3.26" transform="translate(524.66 165.57) rotate(90)"/><rect class="cls-4" x="180.1" y="362.33" width="19.53" height="23.9" transform="translate(564.14 184.41) rotate(90)"/><rect class="cls-4" x="189.96" y="382.29" width="19.53" height="43.63" transform="translate(603.84 204.38) rotate(90)"/><rect class="cls-4" x="181.95" y="419.74" width="19.53" height="27.6" transform="translate(625.25 241.82) rotate(90)"/><rect class="cls-4" x="190.06" y="528.53" width="19.53" height="44.9" transform="translate(750.81 351.16) rotate(90)"/><rect class="cls-4" x="190.92" y="556.84" width="19.53" height="46.61" transform="translate(780.83 379.46) rotate(90)"/><rect class="cls-4" x="192.72" y="584.2" width="19.53" height="49.14" transform="translate(811.26 406.28) rotate(90)"/><rect class="cls-4" x="177.19" y="630.23" width="19.53" height="18.08" transform="translate(826.22 452.31) rotate(90)"/><rect class="cls-4" x="183.12" y="652.65" width="19.53" height="31.03" transform="translate(861.05 475.27) rotate(90)"/><rect class="cls-4" x="193.36" y="672.25" width="19.53" height="50.41" transform="translate(900.58 494.33) rotate(90)"/><rect class="cls-4" x="183.98" y="711.05" width="19.53" height="31.66" transform="translate(920.63 533.14) rotate(90)"/></g></svg>