<?xml version="1.0" encoding="UTF-8"?><svg id="manhattan" xmlns="http://www.w3.org/2000/svg" viewBox="0 0 792 506.22"><defs><style>.cls-1{fill:#642e76;stroke:#fff;stroke-miterlimit:10;}</style></defs><rect class="cls-1" x="72.08" y="302.96" width="19.53" height="32.19"/><rect class="cls-1" x="101.51" y="299.44" width="19.53" height="35.71"/><rect class="cls-1" x="130.67" y="259.89" width="19.53" height="21.02"/><rect class="cls-1" x="159.56" y="254.31" width="19.53" height="49.8"/><rect class="cls-1" x="189.66" y="234.63" width="19.53" height="11.51"/><rect class="cls-1" x="218.96" y="261.76" width="19.53" height="29.86"/><rect class="cls-1" x="247.98" y="221.5" width="19.53" height="34.85"/><rect class="cls-1" x="277.15" y="299.95" width="19.53" height="18.17"/><rect class="cls-1" x="306.84" y="271.66" width="19.53" height="47.74"/><rect class="cls-1" x="336.27" y="297.95" width="19.53" height="12.76"/><rect class="cls-1" x="365.43" y="229.45" width="19.53" height="45.15"/><rect class="cls-1" x="395.26" y="204.28" width="19.53" height="41.32"/><rect class="cls-1" x="424.69" y="265.69" width="19.53" height="38.64"/><rect class="cls-1" x="453.72" y="281.49" width="19.53" height="23.87"/><rect class="cls-1" x="482.61" y="307.01" width="19.53" height="15.61"/><rect class="cls-1" x="512.84" y="253.11" width="19.53" height="35.46"/><rect class="cls-1" x="542.14" y="207.72" width="19.53" height="39.97"/><rect class="cls-1" x="571.3" y="202.77" width="19.53" height="43.82"/><rect class="cls-1" x="599.92" y="199.94" width="19.53" height="39.9"/><rect class="cls-1" x="630.42" y="262.2" width="19.53" height="25.38"/><rect class="cls-1" x="659.32" y="241.96" width="19.53" height="24.85"/><rect class="cls-1" x="688.61" y="182.97" width="19.53" height="51.09"/><rect class="cls-1" x="718.04" y="237.55" width="19.53" height="27.89"/></svg>