<?xml version="1.0" encoding="UTF-8"?><svg id="brooklyn" xmlns="http://www.w3.org/2000/svg" viewBox="0 0 792 506.22"><defs><style>.cls-1{fill:#da3832;stroke:#fff;stroke-miterlimit:10;}</style></defs><rect class="cls-1" x="130.67" y="280.92" width="19.53" height="53.69"/><rect class="cls-1" x="159.56" y="304.11" width="19.53" height="30.5"/><rect class="cls-1" x="189.66" y="246.14" width="19.53" height="42.59"/><rect class="cls-1" x="218.96" y="291.27" width="19.53" height="43.88"/><rect class="cls-1" x="247.98" y="256.35" width="19.53" height="42.75"/><rect class="cls-1" x="277.15" y="318.12" width="19.53" height="16.49"/><rect class="cls-1" x="306.84" y="319.41" width="19.53" height="15.2"/><rect class="cls-1" x="336.27" y="310.52" width="19.53" height="20.83"/><rect class="cls-1" x="365.43" y="274.82" width="19.53" height="35.89"/><rect class="cls-1" x="395.26" y="245.51" width="19.53" height="45.47"/><rect class="cls-1" x="424.69" y="304.33" width="19.53" height="2.68"/><rect class="cls-1" x="453.65" y="305.47" width="19.53" height="29.14"/><rect class="cls-1" x="482.61" y="322.62" width="19.53" height="12.53"/><rect class="cls-1" x="512.84" y="288.34" width="19.53" height="46.27"/><rect class="cls-1" x="542.14" y="247.69" width="19.53" height="42.56"/><rect class="cls-1" x="571.3" y="246.6" width="19.53" height="41.75"/><rect class="cls-1" x="599.92" y="240.1" width="19.53" height="45.05"/><rect class="cls-1" x="630.42" y="287.58" width="19.53" height="28.95"/><rect class="cls-1" x="659.32" y="266.81" width="19.53" height="37.31"/><rect class="cls-1" x="688.61" y="234.06" width="19.53" height="50.13"/><rect class="cls-1" x="718.04" y="265.54" width="19.53" height="37.31"/></svg>