<?xml version="1.0" encoding="utf-8"?>
<!-- Generator: Adobe Illustrator 27.5.0, SVG Export Plug-In . SVG Version: 6.00 Build 0)  -->
<svg version="1.1" id="Layer_3" xmlns="http://www.w3.org/2000/svg" xmlns:xlink="http://www.w3.org/1999/xlink" x="0px" y="0px"
	 viewBox="0 0 925.2 841.9" style="enable-background:new 0 0 925.2 841.9;" xml:space="preserve">
<style type="text/css">
	.st0{fill:#FFFFFF;stroke:#FFFFFF;stroke-width:8;stroke-miterlimit:10;}
</style>
<path class="st0" d="M596.4,776.6c0,0,75.4-30,120.8-74.9h101.1v74.9H596.4L596.4,776.6z"/>
<path class="st0" d="M818.2,420.9c0,196.4-159.2,355.6-355.6,355.6S107,617.3,107,420.9S266.2,65.3,462.6,65.3
	S818.2,224.5,818.2,420.9L818.2,420.9z M464.4,116.1c-41.5,0-75.1,33.6-75.1,75.1s33.6,75.1,75.1,75.1s75.1-33.6,75.1-75.1
	S505.9,116.1,464.4,116.1L464.4,116.1z M662.7,233.2c-41.5,0-75.1,33.6-75.1,75.1s33.6,75.1,75.1,75.1s75.1-33.6,75.1-75.1
	S704.2,233.2,662.7,233.2z M657.2,457.5c-41.5,0-75.1,33.6-75.1,75.1s33.6,75.1,75.1,75.1s75.1-33.6,75.1-75.1
	S698.7,457.5,657.2,457.5L657.2,457.5z M464.4,570.2c-41.5,0-75.1,33.6-75.1,75.1s33.6,75.1,75.1,75.1s75.1-33.6,75.1-75.1
	S505.9,570.2,464.4,570.2z M270.5,457.5c-41.5,0-75.1,33.6-75.1,75.1s33.6,75.1,75.1,75.1s75.1-33.6,75.1-75.1
	S312,457.5,270.5,457.5z M270.5,233.2c-41.5,0-75.1,33.6-75.1,75.1s33.6,75.1,75.1,75.1s75.1-33.6,75.1-75.1S312,233.2,270.5,233.2z
	 M462.6,363.7c-30.1,0-54.5,24.4-54.5,54.5s24.4,54.5,54.5,54.5s54.5-24.4,54.5-54.5S492.7,363.7,462.6,363.7L462.6,363.7z"/>
</svg>
