<?xml version="1.0" encoding="UTF-8"?><svg id="Layer_1" xmlns="http://www.w3.org/2000/svg" viewBox="0 0 72 72"><defs><style>.cls-1{fill:#f7a328;}.cls-2{fill:#a2cf6a;}.cls-3{fill:#383838;}</style></defs><polygon class="cls-3" points="21.29 33.75 15.73 31.06 15.73 23.88 21.29 26.48 21.29 33.75"/><polygon class="cls-3" points="28.26 37.13 22.54 34.36 22.54 27.07 28.26 29.75 28.26 37.13"/><polygon class="cls-3" points="35.45 40.6 29.55 37.75 29.55 30.35 35.45 33.11 35.45 40.6"/><polygon class="cls-3" points="21.29 42.35 15.73 39.56 15.73 32.38 21.29 35.08 21.29 42.35"/><polygon class="cls-3" points="28.26 45.86 22.54 42.98 22.54 35.69 28.26 38.48 28.26 45.86"/><polygon class="cls-3" points="35.45 49.47 29.55 46.5 29.55 39.1 35.45 41.97 35.45 49.47"/><polygon class="cls-3" points="21.29 50.96 15.73 48.06 15.73 40.88 21.29 43.69 21.29 50.96"/><polygon class="cls-3" points="28.26 54.59 22.54 51.61 22.54 44.32 28.26 47.21 28.26 54.59"/><polygon class="cls-3" points="35.45 58.33 29.55 55.26 29.55 47.86 35.45 50.84 35.45 58.33"/><polygon class="cls-1" points="42.57 37.74 36.68 40.59 36.68 33.1 42.57 30.34 42.57 37.74"/><polygon class="cls-1" points="49.57 34.35 43.85 37.12 43.85 29.74 49.57 27.06 49.57 34.35"/><polygon class="cls-1" points="56.37 31.06 51.03 33.64 51.03 26.38 56.37 23.88 56.37 31.06"/><polygon class="cls-1" points="42.57 46.49 36.68 49.45 36.68 41.96 42.57 39.09 42.57 46.49"/><polygon class="cls-1" points="49.57 42.98 43.85 45.85 43.85 38.47 49.57 35.69 49.57 42.98"/><polygon class="cls-1" points="56.37 39.56 50.82 42.35 50.82 35.08 56.37 32.38 56.37 39.56"/><polygon class="cls-1" points="42.57 55.25 36.68 58.31 36.68 50.82 42.57 47.85 42.57 55.25"/><polygon class="cls-1" points="49.57 51.6 43.85 54.58 43.85 47.2 49.57 44.31 49.57 51.6"/><polygon class="cls-1" points="56.37 48.06 50.82 50.95 50.82 43.68 56.37 40.88 56.37 48.06"/><polygon class="cls-2" points="35.79 18.69 30 16.16 35.83 13.67 41.62 16.14 35.79 18.69"/><polygon class="cls-2" points="43.06 21.87 37.09 19.26 42.92 16.7 48.88 19.25 43.06 21.87"/><polygon class="cls-2" points="50.55 25.15 44.4 22.46 50.22 19.82 56.37 22.45 50.55 25.15"/><polygon class="cls-2" points="28.71 21.79 22.92 19.18 28.92 16.62 34.71 19.17 28.71 21.79"/><polygon class="cls-2" points="35.98 25.07 30.01 22.38 36.01 19.74 41.98 22.36 35.98 25.07"/><polygon class="cls-2" points="43.47 28.45 37.32 25.67 43.32 22.95 49.46 25.66 43.47 28.45"/><polygon class="cls-2" points="21.42 24.98 15.63 22.29 21.81 19.66 27.6 22.28 21.42 24.98"/><polygon class="cls-2" points="28.68 28.36 22.72 25.58 28.9 22.87 34.86 25.57 28.68 28.36"/><polygon class="cls-2" points="36.17 31.84 30.02 28.98 36.2 26.18 42.35 28.96 36.17 31.84"/></svg>